$MeshFormat
2.2 0 8
$EndMeshFormat
$PhysicalNames
5
1 1 "inflow"
1 2 "outflow"
1 3 "walls"
1 4 "cylinder"
2 5 "domain"
$EndPhysicalNames
$Nodes
643
1 0 0 0
2 10 0 0
3 10 8 0
4 0 8 0
5 4 4 0
6 3 5 0
7 2 4 0
8 3 3 0
9 0.499999999999549 0 0
10 0.9999999999991849 0 0
11 1.499999999998279 0 0
12 1.999999999996818 0 0
13 2.499999999995357 0 0
14 2.999999999993896 0 0
15 3.499999999992435 0 0
16 3.999999999991009 0 0
17 4.499999999991629 0 0
18 4.999999999992388 0 0
19 5.499999999993147 0 0
20 5.999999999993905 0 0
21 6.499999999994665 0 0
22 6.999999999995423 0 0
23 7.499999999996183 0 0
24 7.999999999996942 0 0
25 8.499999999997707 0 0
26 8.999999999998471 0 0
27 9.499999999999236 0 0
28 10 0.4999999999989861 0
29 10 0.9999999999981901 0
30 10 1.499999999996755 0
31 10 1.999999999995299 0
32 10 2.499999999993841 0
33 10 2.999999999992383 0
34 10 3.499999999990925 0
35 10 3.999999999989554 0
36 10 4.499999999990784 0
37 10 4.999999999992101 0
38 10 5.499999999993417 0
39 10 5.999999999994734 0
40 10 6.49999999999605 0
41 10 6.999999999997367 0
42 10 7.499999999998684 0
43 9.500000000000002 8 0
44 9.000000000000002 8 0
45 8.500000000000004 8 0
46 8.000000000000004 8 0
47 7.500000000000005 8 0
48 7.000000000000007 8 0
49 6.500000000000007 8 0
50 6.000000000000009 8 0
51 5.50000000000001 8 0
52 5.000000000000011 8 0
53 4.500000000000012 8 0
54 4.000000000000013 8 0
55 3.500000000000014 8 0
56 3.000000000000015 8 0
57 2.500000000000017 8 0
58 2.000000000000018 8 0
59 1.500000000000014 8 0
60 1.000000000000011 8 0
61 0.5000000000000036 8 0
62 0 7.499999999997917 0
63 0 6.999999999996009 0
64 0 6.499999999999304 0
65 0 6.000000000002772 0
66 0 5.50000000000624 0
67 0 5.00000000000971 0
68 0 4.500000000013177 0
69 0 4.000000000016472 0
70 0 3.500000000014565 0
71 0 3.000000000012484 0
72 0 2.500000000010403 0
73 0 2.000000000008323 0
74 0 1.500000000006242 0
75 0 1.000000000004161 0
76 0 0.500000000002081 0
77 3.974927911983317 4.222520934826028 0
78 3.90096886692418 4.433883741148893 0
79 3.781831480358262 4.623489804504299 0
80 3.623489799678581 4.781831484206643 0
81 3.433883737537088 4.900968868663533 0
82 3.222520933094207 4.974927912378594 0
83 2.777479066197011 4.97492791221682 0
84 2.566116260661603 4.900968867796069 0
85 2.37651019775276 4.781831482158206 0
86 2.21816851754659 4.623489801877066 0
87 2.09903113192712 4.433883738763592 0
88 2.025072087760013 4.222520933701485 0
89 2.025072087824969 3.777479066013926 0
90 2.099031132495104 3.566116260056976 0
91 2.218168518612334 3.376510196786533 0
92 2.376510199308844 3.218168516600858 0
93 2.566116261876763 3.099031131618741 0
94 2.777479066678305 3.025072087673329 0
95 3.222520933986074 3.025072087824969 0
96 3.433883739943024 3.099031132495104 0
97 3.623489803213467 3.218168518612334 0
98 3.781831483399142 3.376510199308844 0
99 3.900968868381259 3.566116261876763 0
100 3.974927912326671 3.777479066678305 0
101 9.551649082667568 3.257218496036085 0
102 6.750000000000004 7.566987298107782 0
103 6.273371341563511 0.49118064005559 0
104 9.524922483362191 4.815340937072293 0
105 2.384391306497315 2.973826942851795 0
106 2.371377556423801 5.000410018039183 0
107 5.291973143490597 7.604773984867997 0
108 3.122344304492051 5.178255023993803 0
109 2.902272434341638 2.803794694879311 0
110 4.797602946536291 0.4768791006599407 0
111 3.380833186015718 2.878926611763143 0
112 7.75185966475439 0.4055976173195229 0
113 1.746994422055894 0.4069428398626088 0
114 1.77558802222653 7.577597725772307 0
115 1.994396157909888 4.631862772467409 0
116 1.99779003792581 3.343144816046804 0
117 3.726626675739265 7.589956266675775 0
118 9.542327823160315 6.229486070824381 0
119 3.259008993171064 0.4273714270735672 0
120 1.819827262420687 4.132973531776827 0
121 0.4049639683907549 2.245226469543613 0
122 0.4032695577372823 5.719443214850784 0
123 9.545046104138811 1.78741283357376 0
124 8.23243291991945 7.58320201207257 0
125 2.730961966947705 7.584068166638319 0
126 0.4330127018892156 4.750000000011443 0
127 0.3803733190756627 3.206390574585822 0
128 0.4271202383764144 1.269455361694086 0
129 0.4004997828622767 6.726752168699504 0
130 8.713485757655583 0.4526019392093891 0
131 9.579218294759148 7.248682443237543 0
132 0.7857849343895436 0.4852161441366847 0
133 0.7552805667340664 7.547854044814923 0
134 9.617269427021196 0.7558049811428145 0
135 3.147081655474223 2.82183701708495 0
136 3.308688172739262 2.636580958224906 0
137 3.55886836161342 2.69941267276251 0
138 3.474200076230443 2.4354465794352 0
139 3.747916985846896 2.492668800205561 0
140 3.650873191635555 2.220347448153738 0
141 3.944987848586275 2.276770905016314 0
142 3.360009130075493 2.175947490176508 0
143 3.839831296749625 1.986629912526481 0
144 4.144577895346442 2.044498146914612 0
145 4.242058731525214 2.342363252905392 0
146 4.454211071259525 2.10686672767644 0
147 4.552584789663504 2.413047786744241 0
148 4.76986325241125 2.173243391980245 0
149 4.870711909224649 2.487150139004265 0
150 5.095072747019539 2.239827964767553 0
151 5.199146406048564 2.567653164391589 0
152 5.425836187477577 2.310902378994304 0
153 5.538542267660498 2.649214323133122 0
154 5.760158501367449 2.369697230365703 0
155 5.886267778304573 2.723937368386708 0
156 5.644064769238875 2.992335849696774 0
157 6.008921205047088 3.087438896058965 0
158 5.750631572245757 3.335115021032378 0
159 6.113147001964468 3.444886414703975 0
160 5.85401245231844 3.681489440632579 0
161 4.005603840590272 4.631862775738386 0
162 6.203560431713378 3.776762260469589 0
163 5.940255362777773 4.035927253636727 0
164 6.302931915434308 4.111307102001264 0
165 6.27475721204631 2.828002571218192 0
166 6.036846607157436 4.38944427923188 0
167 6.414634145902705 4.451288822315759 0
168 6.547339416131209 3.834840144096916 0
169 6.15369763478235 4.74386309590897 0
170 6.537671230605872 4.818268905164107 0
171 4.213025894036046 4.136270144057925 0
172 6.264502844367218 5.116682812403835 0
173 6.65248247596791 5.213646144858155 0
174 6.932328267699804 4.893996105182302 0
175 5.885999162097123 5.026013600313036 0
176 4.16555423014202 3.582557643381048 0
177 7.045221593926734 5.332555928123782 0
178 5.99114935429292 5.375819213068892 0
179 5.614236500607828 5.291237736840703 0
180 3.624193778014107 5.012431293582205 0
181 7.335499684999275 4.995719789675349 0
182 7.454209656337495 5.43779328985862 0
183 5.518284627886546 4.943195285405686 0
184 5.259885702649461 5.207521465154025 0
185 5.352331653206884 5.555279782819637 0
186 5.006287064352902 5.466728959287214 0
187 5.60376979318113 3.939606679012352 0
188 5.320808985984371 1.974781692778427 0
189 5.098626134889168 5.810493611043545 0
190 4.757021777259643 5.715830646019577 0
191 6.71627310338088 5.662056571163785 0
192 4.97354419635737 2.858584738007258 0
193 4.845789387776613 6.063088070375975 0
194 4.50141222395171 5.966441231050394 0
195 5.462177269753504 5.899713190921345 0
196 5.168826459845041 4.872277376685638 0
197 7.751686461796724 5.100415015552771 0
198 7.623057081661639 4.673200954716737 0
199 7.882573864633033 5.51832041693344 0
200 7.582881224128833 5.870788295837405 0
201 4.050224188166871 1.736861587413022 0
202 3.715151156924877 1.679434698466518 0
203 4.667773530296116 1.860500875181295 0
204 4.584532284537829 6.324272430945992 0
205 4.238045363640494 6.219561297027676 0
206 8.015116486411012 5.946664572529007 0
207 3.839788561221647 3.160211441487641 0
208 3.943780567534143 1.406675287868637 0
209 8.044414228640374 4.777944497450262 0
210 7.913749249906498 4.355290248941619 0
211 7.711399450563148 6.285246988769174 0
212 4.158457153132888 5.876273453567601 0
213 3.906540341796006 6.115143008932931 0
214 4.688631409710294 5.366720609119779 0
215 8.321393463229487 5.60923259140974 0
216 4.946392803175906 6.423470430349459 0
217 4.668895809126504 6.698150225795658 0
218 8.337796856643156 4.455423895462012 0
219 8.208194502213642 4.033721628550598 0
220 7.780780192086787 3.939290871235913 0
221 8.069752018099173 3.618887509793863 0
222 7.645074482658343 3.529476747081841 0
223 7.935397421187893 3.208584660390998 0
224 7.500300877846091 3.120307969014776 0
225 7.791157793980634 2.792708657865612 0
226 8.229500305185688 2.883774478441187 0
227 8.08978652251896 2.46286637288412 0
228 7.647043077990938 2.373789172731317 0
229 7.94559393622166 2.041028987856757 0
230 7.504364485902166 1.956284510668676 0
231 8.709020412278992 4.139232080476542 0
232 3.831855475512297 5.794215502127923 0
233 3.578982592961143 6.021689378044845 0
234 3.657795147733983 6.353155247296681 0
235 3.32104761344995 6.251196857329385 0
236 3.403917180989028 6.584296925583896 0
237 3.059146703902474 6.481801694747716 0
238 2.984006412695211 6.1334704982409 0
239 2.721670146678827 6.367639489998767 0
240 2.644020625610524 6.027450365943278 0
241 2.390146044726072 6.255879345474074 0
242 2.319648365383661 5.915870957616946 0
243 2.061011139888974 6.146708398406133 0
244 1.992835975757477 5.801106824482812 0
245 1.721215724743272 6.035973351348053 0
246 1.657720080512493 5.68436239737021 0
247 1.792246850591834 6.39861166611571 0
248 8.151086046744036 6.380522402722982 0
249 8.533610067968205 2.551499411192142 0
250 2.454139477403056 6.604379630196286 0
251 4.338755399657203 2.638537216264428 0
252 2.563791130336807 5.726096984853749 0
253 7.211215343343341 2.28739894390868 0
254 7.067664625602528 1.875734250258266 0
255 1.427062617755728 6.279344985391685 0
256 3.575713808213361 1.361355184944067 0
257 7.801776152345429 1.61049851734572 0
258 8.254362072515798 1.697637662715047 0
259 4.05797380964421 5.583944927923454 0
260 3.779235259060064 1.088035041644451 0
261 3.759942432413366 6.706786422829103 0
262 1.506089301187673 6.683281319231878 0
263 5.431442734608685 3.255892485788103 0
264 3.550725379166107 5.719699050317203 0
265 4.190388017555492 1.128238235210463 0
266 7.832775557359339 6.715495924697821 0
267 7.3930159509965 6.614871917417002 0
268 1.920767036544452 5.472733236803677 0
269 1.59263378668863 5.341786622052952 0
270 1.331881169361276 5.560377636096171 0
271 1.278201102070682 5.202619210951831 0
272 5.406603186831157 4.623093361623868 0
273 5.074102731562482 4.568880773594743 0
274 4.853237145362131 4.782439451762259 0
275 4.778471706741907 4.496182429270071 0
276 5.017943590032506 4.255363323530756 0
277 4.569814558762028 4.687000499697566 0
278 8.658628915668839 2.971008543538892 0
279 8.98056053766132 2.640166893219061 0
280 6.786169162056312 2.199963285014494 0
281 6.640173763208818 1.796641245654421 0
282 6.921206733383126 1.465870469544562 0
283 6.49548523862169 1.37074244018295 0
284 6.933790150059801 2.614540565553628 0
285 6.216651075412725 1.712829445867346 0
286 6.072415274965452 1.295672074207459 0
287 6.787523214800702 1.043196224195646 0
288 7.358314635049809 3.847615592275775 0
289 4.714805951927465 4.213882654593545 0
290 4.879428473026704 3.980474460656042 0
291 4.596445427297673 3.912285829591302 0
292 4.800189435395902 3.700010523915325 0
293 7.472052456389748 7.119616193873815 0
294 8.839412350155367 2.206029940793697 0
295 7.212329788303337 1.119153365709244 0
296 8.108879335162957 1.259782090033507 0
297 8.570578623461493 1.340622302744458 0
298 8.510399605860602 4.904214872997327 0
299 3.137099859041308 6.840520132047849 0
300 3.356707762762737 1.633027545188473 0
301 3.20969712423891 1.308321297899055 0
302 2.979799133772143 1.587034448577886 0
303 2.83945397971778 1.240679011886942 0
304 2.613617732497922 1.536476570208149 0
305 2.742921109103424 1.857724299257041 0
306 2.384003257111804 1.83532692032916 0
307 2.244699193889176 1.493562477386037 0
308 2.012299699700636 1.805449001282434 0
309 1.86483241827442 1.44891368503697 0
310 1.631947940426137 1.762731250175016 0
311 1.787267037930214 2.119387356495089 0
312 2.526534717855909 2.12216326612731 0
313 1.473769755350684 1.426624075889971 0
314 1.397993387422528 2.106123779590221 0
315 1.594298554901821 2.43398870142953 0
316 1.957085736453723 2.454615242375351 0
317 1.735793038696006 2.697470059200093 0
318 1.397302145045836 2.719615853788193 0
319 1.609646033453765 3.007996924071879 0
320 1.20914471190454 3.005197004772774 0
321 1.356345124970204 3.346346088532222 0
322 5.052190822097346 6.798309218766876 0
323 1.519512388908809 4.999325612901271 0
324 1.215768125788327 4.862872577255557 0
325 1.488888987221905 4.622505124135057 0
326 1.156675631774847 4.538453001594752 0
327 2.10774576831511 1.141935604295447 0
328 4.753463315821363 7.105265480670412 0
329 5.059504036105164 3.765665783186082 0
330 5.338864410930654 6.521513198232836 0
331 5.445032516108391 6.900727927773335 0
332 5.750173479359086 6.614124357881562 0
333 5.860438319825114 6.993484266514823 0
334 6.162764722991634 6.708420955164371 0
335 6.048373762629923 6.303973743404815 0
336 6.471639086393473 6.399169611995376 0
337 1.080859704338863 2.657589967659251 0
338 6.585708792661348 6.816080154507066 0
339 3.055698117101504 2.590280595361616 0
340 4.36179359664779 6.966188938425594 0
341 1.893698757357193 6.790822491326928 0
342 2.800754813104196 2.575081957184976 0
343 3.820683646040637 2.7517731537808 0
344 8.291345214567073 6.811470266711527 0
345 8.611262187094116 6.477903431680525 0
346 8.756370167208553 6.88978115710036 0
347 2.957055614808724 2.361997140482739 0
348 4.971029106652644 3.467123606491954 0
349 4.695683622243834 3.431805064690557 0
350 4.028049159549806 0.7646304299182467 0
351 1.120490895559351 6.570632635303761 0
352 1.08267405013416 6.128524075540047 0
353 1.205037903751635 6.934192706690145 0
354 1.403974995510409 4.259845204578569 0
355 1.120909438918378 4.178890293943498 0
356 1.338402260219989 3.947682968694632 0
357 1.047601835407007 3.844796707223599 0
358 0.7482466132006864 4.073505035627893 0
359 1.012282765898738 3.277955213863183 0
360 0.9798156161848457 5.120745495261785 0
361 4.120993948858681 4.392252749748289 0
362 4.012523414052459 3.353947279357707 0
363 4.094731835419834 3.115583819550718 0
364 4.273124976433053 3.290845782111257 0
365 4.329870697895148 3.054013323409627 0
366 4.180405117164721 3.864566491635991 0
367 2.866473994024417 5.173294674392905 0
368 2.99443209600625 5.388792433074648 0
369 2.637509329656722 2.841846937116431 0
370 2.397255163882859 2.731708893032605 0
371 2.177007812977386 2.828879965804927 0
372 5.802211100257687 1.649340255417755 0
373 5.648122942156695 1.247183193262043 0
374 3.828889629720265 4.864093597128637 0
375 4.109347940260798 4.881787856539379 0
376 3.854611079204375 5.112930753362132 0
377 3.632833365310046 5.259516723074781 0
378 4.1419072837992 5.163776659761915 0
379 2.610154607531336 5.113579255362112 0
380 2.384349957738889 5.278815841800139 0
381 2.163362611525896 4.836445278320178 0
382 2.148614815441286 3.107971410967682 0
383 7.048139626325877 0.7197269937161636 0
384 4.384429161823769 3.744878240372072 0
385 1.871493261244608 3.565901373959403 0
386 1.781434147728519 3.836668201616242 0
387 1.887784861078653 4.381392592960151 0
388 2.139416424132101 5.079582290723012 0
389 3.229474175994261 5.371740683016524 0
390 3.080305459125045 5.608724754738574 0
391 4.329776272334113 4.34017674035447 0
392 4.329399020458125 5.018557354363015 0
393 6.344790061279011 5.928979613144466 0
394 4.456832658508034 7.38008495909175 0
395 5.934634468249422 0.8765142861231802 0
396 5.495127399164391 0.8333630835743439 0
397 5.212519348447163 1.165017789393625 0
398 4.859470349855674 3.170146438141296 0
399 9.274757368387808 2.25212394575435 0
400 1.930535731513372 4.85293620901207 0
401 1.888479268380097 3.128178868130545 0
402 2.692052001243948 5.344980233513028 0
403 1.597452483339245 3.586614856807881 0
404 2.260669413250306 5.572851933329076 0
405 4.262270912377653 4.601815675788243 0
406 0.7279387257720933 3.730226240180212 0
407 3.085658745486895 0.9071351914797066 0
408 2.680125774997046 0.8769074867993113 0
409 3.65590506415271 2.965524589599137 0
410 5.897111979818281 5.92822353406796 0
411 4.392437019110495 5.594905320323652 0
412 9.098655967064236 6.579747637800339 0
413 8.98442518735564 6.120487469903847 0
414 9.329442099104725 5.712120937041972 0
415 8.797842079290819 5.612433123462746 0
416 9.221120961336052 5.296823249563954 0
417 2.169792639266808 2.125726065227068 0
418 6.819370671568533 6.092090375425451 0
419 0.3964051665867739 5.235413304090955 0
420 0.3792456170958299 2.735343346033534 0
421 4.936344838459289 5.113974482666706 0
422 8.412290734325465 0.8829966015686521 0
423 8.874742646511114 0.9228721874161812 0
424 9.096142213106493 1.421963786998213 0
425 3.126835995862469 1.925945233708759 0
426 5.739867239612659 0.4376713924078413 0
427 1.720201034885621 3.329697154591456 0
428 3.222035181135487 7.524682441109701 0
429 3.520339641237141 7.258771729793764 0
430 2.25870507972266 7.586217045070979 0
431 2.455321486571379 7.217081988543505 0
432 5.535605388860246 3.606249520580463 0
433 5.76995511630084 4.676166074684449 0
434 5.619114875980591 4.327194356615954 0
435 5.328784946896787 4.131807374581632 0
436 3.392252745987088 5.120993948511106 0
437 5.283725131459572 0.4166338129865488 0
438 7.361699977065824 2.706155493781842 0
439 7.08199824601579 3.038316647064411 0
440 6.672404616208572 2.935627487621037 0
441 6.802154146401765 3.340636738474572 0
442 7.224791946380112 3.441123796780244 0
443 5.322923144974689 2.911849611823602 0
444 3.941950632325267 7.152622212882802 0
445 0.4212989822266344 1.754742260901158 0
446 0.8327327024518827 1.996533871017158 0
447 0.820429406044018 1.535943533548363 0
448 0.846347839495458 1.049252661251083 0
449 0.3951286328442077 6.196842501745256 0
450 4.469729199072879 0.8227803028196332 0
451 4.588617366260831 1.209949002723581 0
452 4.863099193280868 0.9334326977771354 0
453 4.649581805962561 2.726917104104 0
454 9.514741601151741 2.709371331084243 0
455 7.493794364516185 4.254562179222511 0
456 7.079450897637625 4.176119863985861 0
457 7.211515270039293 4.569169953656982 0
458 7.034254146405148 6.916532563773972 0
459 4.145397654666458 2.846140347925739 0
460 1.270893492284574 0.4163899160027369 0
461 1.514568946651135 0.7572455648817199 0
462 1.275771960214567 7.590728839476059 0
463 2.244164090013623 0.4272307362782548 0
464 5.756580439759533 7.61187658652397 0
465 6.222152082780545 7.597142708532093 0
466 7.154943317578554 5.767370186531833 0
467 2.779095566996289 0.4162143684503181 0
468 3.753686450378588 0.4066384915822992 0
469 7.256065766231799 7.588885126090319 0
470 6.947367855216726 3.771271490428876 0
471 2.357978739275172 2.416326022695731 0
472 7.738711243161122 7.573787064612857 0
473 9.571282958047123 3.742559698725403 0
474 9.166837254393533 3.528132188773818 0
475 9.172302208663311 3.984102721016326 0
476 9.56886803807952 4.253257537178974 0
477 9.134044741548472 4.443349954915931 0
478 5.395146049375521 1.599850691430401 0
479 5.001249508942021 1.583798747821586 0
480 4.03996671105378 2.558042279349706 0
481 6.371748976399773 2.113547061168992 0
482 9.568430721767896 6.761850986878004 0
483 3.243213803068354 5.876715425649138 0
484 4.590280800306655 5.003965088447396 0
485 0.4036770065040667 4.300810914897357 0
486 8.720112016461579 7.60314410507325 0
487 0.7714266149093866 5.463941059837086 0
488 9.589267605499536 1.244195701139242 0
489 6.529718616335089 2.524295359043167 0
490 5.98615437084882 2.060090858897408 0
491 6.935948717358976 6.507946880316803 0
492 8.494061795691445 3.701977038274783 0
493 6.802579030448594 4.513330371949215 0
494 3.476256532196866 0.7937268292920479 0
495 2.890150623934604 5.822287573142483 0
496 4.308854214758632 1.47862306703089 0
497 8.226479606601206 0.429216338384359 0
498 6.332654456332812 7.16931130840515 0
499 1.851191524058532 5.128726125948043 0
500 6.134800909217001 2.436595074846695 0
501 6.374716493021529 5.501700944387765 0
502 6.38428695237413 3.199178100167029 0
503 1.222281322170842 1.730827727073484 0
504 0.7972647901349059 4.433988503640183 0
505 6.371455748204032 0.9688851328843129 0
506 7.361562494719131 1.535124932693453 0
507 8.174713260613698 5.192353712183601 0
508 2.053442340193747 7.188563323860094 0
509 1.53194299236119 7.149470796180265 0
510 8.356014236678018 3.294273483807275 0
511 8.001402684785019 7.167765786085823 0
512 8.480187575020851 6.02454059861814 0
513 4.540074603625816 3.17558855250972 0
514 4.390129059829571 5.275589884048077 0
515 8.390856412117863 2.124747304308438 0
516 3.767291165310305 5.520163158236771 0
517 1.081556778924341 2.281007953249587 0
518 0.4042130693408499 0.778324928478743 0
519 0.3827753171774667 7.234451520394943 0
520 2.469224714235631 1.188634580853627 0
521 5.188052567071372 6.154969573818541 0
522 9.220763809633402 7.535783842556281 0
523 4.309841795441545 6.587151796235934 0
524 1.313259145124566 3.682242779606931 0
525 2.883049011526133 7.155668419572526 0
526 9.22938438450827 0.4765403727611173 0
527 7.662033182778202 1.183208482634249 0
528 4.278995417667542 0.4162727014743496 0
529 6.804240587641357 0.388126049245966 0
530 4.37309036273977 3.97445955333652 0
531 4.354077607180835 1.806930160626257 0
532 2.800768461280498 6.722149876026384 0
533 8.715406538827546 1.778011804744177 0
534 0.7675323221995701 2.980634741406243 0
535 3.988937881129535 6.466858766040668 0
536 4.997335436733907 1.932701260353946 0
537 8.799782164488056 5.194304706478322 0
538 2.137894056293433 6.512881337306004 0
539 5.626838720170659 6.236336216186597 0
540 1.38372851513176 5.9175222052815 0
541 9.103527059296345 3.081217687509338 0
542 1.764572034904078 4.596914722438548 0
543 3.508234755668459 1.936888721370079 0
544 7.943209975449768 0.8330548732580013 0
545 7.492699974092803 0.7737641436333617 0
546 4.821647953851219 7.608353263550662 0
547 9.123983098530621 1.881457087270963 0
548 5.147513267293994 7.215037824131148 0
549 9.190382245623679 7.013189769412347 0
550 0.7448778595366663 2.458057614649796 0
551 0.4559950805180736 3.938475062182379 0
552 5.740261843799119 5.619290894343726 0
553 1.947157230262766 0.7850941979703812 0
554 8.756404567441894 4.569900244723555 0
555 8.775406918853676 3.386336401637636 0
556 6.682383876795194 4.143026299129648 0
557 0.7869506411135121 6.982061317329899 0
558 2.111278871144856 5.306541885720789 0
559 3.911301352300256 2.967846670468807 0
560 7.26625988869909 6.189719107382944 0
561 3.213189092482225 2.395461336117245 0
562 1.584691199149144 4.039816941037743 0
563 9.640491820153578 5.298833769014974 0
564 2.784031472367688 5.561257966885272 0
565 5.320213631979906 3.843880370514352 0
566 8.991112420672877 4.870655660958563 0
567 4.527024268826195 4.44977701824176 0
568 2.502962360085735 5.484003566189988 0
569 0.7546772093439469 5.946200841499516 0
570 6.754659836164482 7.148994219166571 0
571 4.638078992207388 1.527908395208796 0
572 2.23612206779347 6.880886492316898 0
573 4.125081993314518 7.624532687730066 0
574 1.691173385167486 1.110364813098963 0
575 2.329881954338553 0.8597438368189511 0
576 7.266156642134338 0.381202467319169 0
577 8.487220419552724 7.217809885166664 0
578 2.175674571019022 2.620694305121185 0
579 2.56782873154404 2.564047630856566 0
580 5.615052532551904 1.994110517980666 0
581 3.941341733918881 5.336644785482624 0
582 5.244765565690132 3.514371479414286 0
583 4.061462205751818 6.819354823921687 0
584 5.566027996167322 7.274864653496122 0
585 5.138701367664422 3.182353502795944 0
586 4.742382417458794 2.95599893097561 0
587 2.692699799501951 2.341547257985238 0
588 0.7567368686429092 6.425168923352997 0
589 4.578074105077839 3.654178301284298 0
590 6.46013035483172 3.53354690692803 0
591 4.439490116557721 3.479975597391491 0
592 1.293189568672493 1.086790983523154 0
593 1.926366212913818 2.881379058117843 0
594 3.540720294512912 5.482960772082834 0
595 3.104858227193253 2.188726157039572 0
596 2.858484244054288 2.133017225766777 0
597 9.680282899396712 2.24988858269137 0
598 1.65828989004748 4.338908019487816 0
599 4.449493127155531 2.844068427258421 0
600 8.873372251393894 3.741409467921712 0
601 1.110996812834994 7.240861540898258 0
602 5.121174935608213 3.995438262493773 0
603 1.142156956298641 0.7589790539590757 0
604 0.4001130571135216 3.587833120189954 0
605 0.3660254037836835 0.3660254037843619 0
606 0.366025403784088 7.633974596215355 0
607 0.8671316620585365 4.78343457252861 0
608 9.633974596214724 7.63397459621437 0
609 1.064863489986951 5.739478212497371 0
610 5.28343609508749 4.388613016663628 0
611 9.633974596216088 0.366025403783432 0
612 4.883825785000673 1.256410154969053 0
613 9.281361255329321 0.9642754058915136 0
614 4.367256900785231 4.803572447347827 0
615 1.023071855803292 3.571807937538037 0
616 9.716875266583942 5.749999999994079 0
617 0.7156219892846623 3.377744925607423 0
618 3.496681242859998 6.926033509290598 0
619 3.426059742768804 1.090501408310632 0
620 3.429845604899844 5.315334559267245 0
621 4.466822744864749 4.168877469282485 0
622 6.003245035579756 7.328249533577914 0
623 4.189007210967255 5.385371095113859 0
624 5.159513095253411 0.7553191210400659 0
625 1.133568695335164 1.379096002824955 0
626 1.085237598502628 5.417432322928849 0
627 1.695639397190979 4.816045044386251 0
628 6.104535748747539 5.667414667621784 0
629 3.339197501865992 5.573260968085133 0
630 2.508316846586378 0.6450241070867088 0
631 1.304419534380104 2.461721080556487 0
632 8.874969731695987 7.25194175186178 0
633 2.565880100914907 6.916033281331119 0
634 1.523047847112293 3.818605149552686 0
635 7.058342253719626 7.270447849012889 0
636 6.695261153791073 3.615760666746098 0
637 3.236588678404447 7.141769943896604 0
638 8.497489361932203 5.312186671973889 0
639 1.133641047742398 2.028623332732612 0
640 1.991769928988633 2.684526261098621 0
641 5.178634995258956 1.77278309809609 0
642 6.665304951023423 0.7360051325410538 0
643 0.6895583523257517 5.070706886345976 0
$EndNodes
$Elements
1286
1 1 2 3 1 1 9
2 1 2 3 1 9 10
3 1 2 3 1 10 11
4 1 2 3 1 11 12
5 1 2 3 1 12 13
6 1 2 3 1 13 14
7 1 2 3 1 14 15
8 1 2 3 1 15 16
9 1 2 3 1 16 17
10 1 2 3 1 17 18
11 1 2 3 1 18 19
12 1 2 3 1 19 20
13 1 2 3 1 20 21
14 1 2 3 1 21 22
15 1 2 3 1 22 23
16 1 2 3 1 23 24
17 1 2 3 1 24 25
18 1 2 3 1 25 26
19 1 2 3 1 26 27
20 1 2 3 1 27 2
21 1 2 2 2 2 28
22 1 2 2 2 28 29
23 1 2 2 2 29 30
24 1 2 2 2 30 31
25 1 2 2 2 31 32
26 1 2 2 2 32 33
27 1 2 2 2 33 34
28 1 2 2 2 34 35
29 1 2 2 2 35 36
30 1 2 2 2 36 37
31 1 2 2 2 37 38
32 1 2 2 2 38 39
33 1 2 2 2 39 40
34 1 2 2 2 40 41
35 1 2 2 2 41 42
36 1 2 2 2 42 3
37 1 2 3 3 3 43
38 1 2 3 3 43 44
39 1 2 3 3 44 45
40 1 2 3 3 45 46
41 1 2 3 3 46 47
42 1 2 3 3 47 48
43 1 2 3 3 48 49
44 1 2 3 3 49 50
45 1 2 3 3 50 51
46 1 2 3 3 51 52
47 1 2 3 3 52 53
48 1 2 3 3 53 54
49 1 2 3 3 54 55
50 1 2 3 3 55 56
51 1 2 3 3 56 57
52 1 2 3 3 57 58
53 1 2 3 3 58 59
54 1 2 3 3 59 60
55 1 2 3 3 60 61
56 1 2 3 3 61 4
57 1 2 1 4 4 62
58 1 2 1 4 62 63
59 1 2 1 4 63 64
60 1 2 1 4 64 65
61 1 2 1 4 65 66
62 1 2 1 4 66 67
63 1 2 1 4 67 68
64 1 2 1 4 68 69
65 1 2 1 4 69 70
66 1 2 1 4 70 71
67 1 2 1 4 71 72
68 1 2 1 4 72 73
69 1 2 1 4 73 74
70 1 2 1 4 74 75
71 1 2 1 4 75 76
72 1 2 1 4 76 1
73 1 2 4 5 5 77
74 1 2 4 5 77 78
75 1 2 4 5 78 79
76 1 2 4 5 79 80
77 1 2 4 5 80 81
78 1 2 4 5 81 82
79 1 2 4 5 82 6
80 1 2 4 6 6 83
81 1 2 4 6 83 84
82 1 2 4 6 84 85
83 1 2 4 6 85 86
84 1 2 4 6 86 87
85 1 2 4 6 87 88
86 1 2 4 6 88 7
87 1 2 4 7 7 89
88 1 2 4 7 89 90
89 1 2 4 7 90 91
90 1 2 4 7 91 92
91 1 2 4 7 92 93
92 1 2 4 7 93 94
93 1 2 4 7 94 8
94 1 2 4 8 8 95
95 1 2 4 8 95 96
96 1 2 4 8 96 97
97 1 2 4 8 97 98
98 1 2 4 8 98 99
99 1 2 4 8 99 100
100 1 2 4 8 100 5
101 2 2 5 1 7 120 386
102 2 2 5 1 188 478 580
103 2 2 5 1 119 407 467
104 2 2 5 1 364 513 591
105 2 2 5 1 478 372 580
106 2 2 5 1 231 475 477
107 2 2 5 1 350 260 494
108 2 2 5 1 176 362 364
109 2 2 5 1 542 325 598
110 2 2 5 1 102 498 570
111 2 2 5 1 177 182 466
112 2 2 5 1 142 425 543
113 2 2 5 1 157 165 502
114 2 2 5 1 102 465 498
115 2 2 5 1 407 408 467
116 2 2 5 1 176 364 591
117 2 2 5 1 351 557 588
118 2 2 5 1 191 393 501
119 2 2 5 1 118 412 413
120 2 2 5 1 425 300 543
121 2 2 5 1 374 375 376
122 2 2 5 1 118 413 414
123 2 2 5 1 401 319 593
124 2 2 5 1 163 166 434
125 2 2 5 1 316 471 578
126 2 2 5 1 393 191 418
127 2 2 5 1 187 163 434
128 2 2 5 1 468 350 494
129 2 2 5 1 459 343 480
130 2 2 5 1 468 16 528
131 2 2 5 1 376 375 378
132 2 2 5 1 423 130 526
133 2 2 5 1 582 348 585
134 2 2 5 1 32 33 454
135 2 2 5 1 484 214 514
136 2 2 5 1 350 468 528
137 2 2 5 1 353 509 601
138 2 2 5 1 470 456 556
139 2 2 5 1 231 477 554
140 2 2 5 1 98 207 362
141 2 2 5 1 137 343 409
142 2 2 5 1 513 349 591
143 2 2 5 1 390 483 495
144 2 2 5 1 337 534 550
145 2 2 5 1 448 132 603
146 2 2 5 1 261 444 618
147 2 2 5 1 132 448 518
148 2 2 5 1 398 192 585
149 2 2 5 1 104 416 566
150 2 2 5 1 509 462 601
151 2 2 5 1 283 286 505
152 2 2 5 1 403 321 427
153 2 2 5 1 79 161 374
154 2 2 5 1 423 526 613
155 2 2 5 1 384 291 530
156 2 2 5 1 343 459 559
157 2 2 5 1 440 165 489
158 2 2 5 1 165 440 502
159 2 2 5 1 325 354 598
160 2 2 5 1 469 293 472
161 2 2 5 1 416 104 563
162 2 2 5 1 93 105 369
163 2 2 5 1 53 394 546
164 2 2 5 1 168 470 556
165 2 2 5 1 306 312 417
166 2 2 5 1 529 22 576
167 2 2 5 1 192 398 586
168 2 2 5 1 491 418 560
169 2 2 5 1 298 554 566
170 2 2 5 1 355 326 504
171 2 2 5 1 394 53 573
172 2 2 5 1 103 395 426
173 2 2 5 1 383 529 576
174 2 2 5 1 362 207 363
175 2 2 5 1 111 137 409
176 2 2 5 1 316 417 471
177 2 2 5 1 215 415 512
178 2 2 5 1 557 129 588
179 2 2 5 1 483 238 495
180 2 2 5 1 537 298 566
181 2 2 5 1 191 177 466
182 2 2 5 1 395 103 505
183 2 2 5 1 91 116 382
184 2 2 5 1 389 108 436
185 2 2 5 1 358 355 504
186 2 2 5 1 159 157 502
187 2 2 5 1 135 109 339
188 2 2 5 1 340 394 444
189 2 2 5 1 342 109 369
190 2 2 5 1 212 259 411
191 2 2 5 1 546 328 548
192 2 2 5 1 418 466 560
193 2 2 5 1 33 101 454
194 2 2 5 1 123 424 488
195 2 2 5 1 89 7 386
196 2 2 5 1 174 170 493
197 2 2 5 1 87 115 387
198 2 2 5 1 534 420 550
199 2 2 5 1 374 161 375
200 2 2 5 1 284 440 489
201 2 2 5 1 19 426 437
202 2 2 5 1 321 319 427
203 2 2 5 1 490 481 500
204 2 2 5 1 392 484 514
205 2 2 5 1 409 343 559
206 2 2 5 1 263 582 585
207 2 2 5 1 182 200 466
208 2 2 5 1 319 401 427
209 2 2 5 1 319 317 593
210 2 2 5 1 19 20 426
211 2 2 5 1 415 413 512
212 2 2 5 1 375 161 405
213 2 2 5 1 463 467 630
214 2 2 5 1 386 120 562
215 2 2 5 1 364 365 513
216 2 2 5 1 154 490 500
217 2 2 5 1 339 109 342
218 2 2 5 1 387 542 598
219 2 2 5 1 274 196 421
220 2 2 5 1 308 306 417
221 2 2 5 1 252 242 404
222 2 2 5 1 207 409 559
223 2 2 5 1 166 433 434
224 2 2 5 1 114 462 509
225 2 2 5 1 369 105 370
226 2 2 5 1 342 369 579
227 2 2 5 1 421 214 484
228 2 2 5 1 405 391 567
229 2 2 5 1 291 384 589
230 2 2 5 1 187 434 435
231 2 2 5 1 428 125 525
232 2 2 5 1 444 429 618
233 2 2 5 1 444 394 573
234 2 2 5 1 354 562 598
235 2 2 5 1 422 130 423
236 2 2 5 1 32 454 597
237 2 2 5 1 457 174 493
238 2 2 5 1 402 564 568
239 2 2 5 1 389 436 620
240 2 2 5 1 351 353 557
241 2 2 5 1 195 410 539
242 2 2 5 1 377 376 581
243 2 2 5 1 361 391 405
244 2 2 5 1 286 395 505
245 2 2 5 1 337 320 534
246 2 2 5 1 449 569 588
247 2 2 5 1 366 384 530
248 2 2 5 1 196 184 421
249 2 2 5 1 277 405 567
250 2 2 5 1 407 119 494
251 2 2 5 1 384 176 591
252 2 2 5 1 330 521 539
253 2 2 5 1 284 439 440
254 2 2 5 1 382 116 401
255 2 2 5 1 20 103 426
256 2 2 5 1 72 121 420
257 2 2 5 1 122 66 419
258 2 2 5 1 194 212 411
259 2 2 5 1 463 13 467
260 2 2 5 1 125 430 431
261 2 2 5 1 203 479 536
262 2 2 5 1 181 174 457
263 2 2 5 1 414 416 563
264 2 2 5 1 412 118 482
265 2 2 5 1 264 233 483
266 2 2 5 1 400 499 627
267 2 2 5 1 586 513 599
268 2 2 5 1 399 123 597
269 2 2 5 1 444 261 583
270 2 2 5 1 183 272 433
271 2 2 5 1 123 399 547
272 2 2 5 1 170 167 493
273 2 2 5 1 499 388 558
274 2 2 5 1 320 359 534
275 2 2 5 1 551 69 604
276 2 2 5 1 516 377 581
277 2 2 5 1 354 356 562
278 2 2 5 1 426 396 437
279 2 2 5 1 222 288 442
280 2 2 5 1 287 283 505
281 2 2 5 1 371 382 593
282 2 2 5 1 367 368 402
283 2 2 5 1 224 222 442
284 2 2 5 1 417 312 471
285 2 2 5 1 192 151 443
286 2 2 5 1 449 122 569
287 2 2 5 1 175 183 433
288 2 2 5 1 315 311 316
289 2 2 5 1 513 365 599
290 2 2 5 1 343 139 480
291 2 2 5 1 414 563 616
292 2 2 5 1 121 445 446
293 2 2 5 1 521 195 539
294 2 2 5 1 122 419 487
295 2 2 5 1 56 125 428
296 2 2 5 1 251 459 480
297 2 2 5 1 244 268 404
298 2 2 5 1 192 443 585
299 2 2 5 1 375 405 614
300 2 2 5 1 125 57 430
301 2 2 5 1 139 141 480
302 2 2 5 1 380 379 402
303 2 2 5 1 424 123 547
304 2 2 5 1 441 442 470
305 2 2 5 1 284 438 439
306 2 2 5 1 315 316 317
307 2 2 5 1 382 401 593
308 2 2 5 1 321 524 615
309 2 2 5 1 472 293 511
310 2 2 5 1 428 525 637
311 2 2 5 1 299 525 532
312 2 2 5 1 360 487 643
313 2 2 5 1 450 110 452
314 2 2 5 1 130 422 497
315 2 2 5 1 321 403 524
316 2 2 5 1 579 471 587
317 2 2 5 1 160 187 432
318 2 2 5 1 404 380 568
319 2 2 5 1 293 469 635
320 2 2 5 1 414 413 415
321 2 2 5 1 106 380 388
322 2 2 5 1 433 272 434
323 2 2 5 1 251 147 453
324 2 2 5 1 225 224 438
325 2 2 5 1 198 181 457
326 2 2 5 1 242 244 404
327 2 2 5 1 311 308 417
328 2 2 5 1 171 530 621
329 2 2 5 1 121 73 445
330 2 2 5 1 65 122 449
331 2 2 5 1 69 70 604
332 2 2 5 1 348 398 585
333 2 2 5 1 232 264 516
334 2 2 5 1 338 336 491
335 2 2 5 1 240 242 252
336 2 2 5 1 391 171 621
337 2 2 5 1 564 252 568
338 2 2 5 1 99 98 362
339 2 2 5 1 532 525 633
340 2 2 5 1 117 428 429
341 2 2 5 1 387 115 542
342 2 2 5 1 151 153 443
343 2 2 5 1 475 476 477
344 2 2 5 1 438 224 439
345 2 2 5 1 452 110 624
346 2 2 5 1 499 323 627
347 2 2 5 1 80 79 374
348 2 2 5 1 411 259 623
349 2 2 5 1 262 341 509
350 2 2 5 1 569 352 588
351 2 2 5 1 380 404 558
352 2 2 5 1 305 302 425
353 2 2 5 1 410 195 552
354 2 2 5 1 302 300 425
355 2 2 5 1 183 184 196
356 2 2 5 1 180 377 436
357 2 2 5 1 102 49 465
358 2 2 5 1 94 93 369
359 2 2 5 1 323 324 325
360 2 2 5 1 67 126 419
361 2 2 5 1 127 71 420
362 2 2 5 1 212 232 259
363 2 2 5 1 269 323 499
364 2 2 5 1 460 113 461
365 2 2 5 1 273 274 275
366 2 2 5 1 418 191 466
367 2 2 5 1 51 107 464
368 2 2 5 1 228 225 438
369 2 2 5 1 336 418 491
370 2 2 5 1 420 121 550
371 2 2 5 1 306 305 312
372 2 2 5 1 405 277 614
373 2 2 5 1 232 233 264
374 2 2 5 1 446 447 503
375 2 2 5 1 275 274 277
376 2 2 5 1 175 179 183
377 2 2 5 1 115 400 542
378 2 2 5 1 92 91 382
379 2 2 5 1 479 203 571
380 2 2 5 1 212 213 232
381 2 2 5 1 186 190 214
382 2 2 5 1 11 113 460
383 2 2 5 1 114 59 462
384 2 2 5 1 90 89 385
385 2 2 5 1 289 567 621
386 2 2 5 1 107 546 548
387 2 2 5 1 394 328 546
388 2 2 5 1 277 484 614
389 2 2 5 1 274 421 484
390 2 2 5 1 485 358 504
391 2 2 5 1 439 224 442
392 2 2 5 1 441 470 636
393 2 2 5 1 88 87 387
394 2 2 5 1 67 68 126
395 2 2 5 1 70 71 127
396 2 2 5 1 458 338 491
397 2 2 5 1 273 196 274
398 2 2 5 1 285 481 490
399 2 2 5 1 381 388 400
400 2 2 5 1 117 429 444
401 2 2 5 1 272 196 273
402 2 2 5 1 183 179 184
403 2 2 5 1 184 186 421
404 2 2 5 1 484 392 614
405 2 2 5 1 508 114 509
406 2 2 5 1 194 205 212
407 2 2 5 1 304 302 305
408 2 2 5 1 316 311 417
409 2 2 5 1 210 198 455
410 2 2 5 1 238 240 495
411 2 2 5 1 244 246 268
412 2 2 5 1 461 113 553
413 2 2 5 1 440 439 441
414 2 2 5 1 117 55 428
415 2 2 5 1 269 271 323
416 2 2 5 1 276 275 289
417 2 2 5 1 430 114 508
418 2 2 5 1 268 499 558
419 2 2 5 1 353 262 509
420 2 2 5 1 442 288 470
421 2 2 5 1 314 311 315
422 2 2 5 1 455 198 457
423 2 2 5 1 264 483 629
424 2 2 5 1 58 114 430
425 2 2 5 1 169 175 433
426 2 2 5 1 471 312 587
427 2 2 5 1 16 17 528
428 2 2 5 1 149 192 453
429 2 2 5 1 366 176 384
430 2 2 5 1 72 73 121
431 2 2 5 1 65 66 122
432 2 2 5 1 113 12 463
433 2 2 5 1 361 171 391
434 2 2 5 1 475 473 476
435 2 2 5 1 201 208 496
436 2 2 5 1 454 101 541
437 2 2 5 1 186 214 421
438 2 2 5 1 48 102 469
439 2 2 5 1 214 190 411
440 2 2 5 1 190 194 411
441 2 2 5 1 325 326 354
442 2 2 5 1 171 5 366
443 2 2 5 1 285 281 481
444 2 2 5 1 153 156 443
445 2 2 5 1 214 411 514
446 2 2 5 1 133 557 601
447 2 2 5 1 447 128 448
448 2 2 5 1 252 404 568
449 2 2 5 1 280 284 489
450 2 2 5 1 448 128 518
451 2 2 5 1 147 149 453
452 2 2 5 1 156 158 263
453 2 2 5 1 133 519 557
454 2 2 5 1 400 388 499
455 2 2 5 1 473 35 476
456 2 2 5 1 145 147 251
457 2 2 5 1 161 361 405
458 2 2 5 1 54 55 117
459 2 2 5 1 14 15 119
460 2 2 5 1 77 171 361
461 2 2 5 1 111 135 136
462 2 2 5 1 100 176 366
463 2 2 5 1 96 111 409
464 2 2 5 1 56 57 125
465 2 2 5 1 280 253 284
466 2 2 5 1 445 128 447
467 2 2 5 1 238 239 240
468 2 2 5 1 290 289 291
469 2 2 5 1 110 18 437
470 2 2 5 1 359 321 615
471 2 2 5 1 17 18 110
472 2 2 5 1 11 12 113
473 2 2 5 1 58 59 114
474 2 2 5 1 385 89 386
475 2 2 5 1 207 97 409
476 2 2 5 1 276 435 610
477 2 2 5 1 50 464 465
478 2 2 5 1 141 145 480
479 2 2 5 1 51 52 107
480 2 2 5 1 160 163 187
481 2 2 5 1 393 335 410
482 2 2 5 1 446 503 639
483 2 2 5 1 281 280 481
484 2 2 5 1 487 419 643
485 2 2 5 1 183 196 272
486 2 2 5 1 461 553 574
487 2 2 5 1 310 308 311
488 2 2 5 1 111 95 135
489 2 2 5 1 156 263 443
490 2 2 5 1 289 275 567
491 2 2 5 1 286 285 372
492 2 2 5 1 233 235 483
493 2 2 5 1 300 202 543
494 2 2 5 1 235 237 238
495 2 2 5 1 263 158 432
496 2 2 5 1 369 370 579
497 2 2 5 1 126 504 607
498 2 2 5 1 397 478 479
499 2 2 5 1 341 508 509
500 2 2 5 1 222 220 288
501 2 2 5 1 71 72 420
502 2 2 5 1 66 67 419
503 2 2 5 1 74 128 445
504 2 2 5 1 129 64 449
505 2 2 5 1 254 253 280
506 2 2 5 1 20 21 103
507 2 2 5 1 8 109 135
508 2 2 5 1 158 160 432
509 2 2 5 1 131 522 549
510 2 2 5 1 161 78 361
511 2 2 5 1 50 51 464
512 2 2 5 1 273 275 276
513 2 2 5 1 446 445 447
514 2 2 5 1 108 82 436
515 2 2 5 1 48 49 102
516 2 2 5 1 483 390 629
517 2 2 5 1 6 108 367
518 2 2 5 1 119 15 468
519 2 2 5 1 166 169 433
520 2 2 5 1 415 215 638
521 2 2 5 1 121 446 550
522 2 2 5 1 367 108 368
523 2 2 5 1 526 134 613
524 2 2 5 1 212 205 213
525 2 2 5 1 101 473 474
526 2 2 5 1 40 41 482
527 2 2 5 1 283 281 285
528 2 2 5 1 232 213 233
529 2 2 5 1 240 241 242
530 2 2 5 1 149 151 192
531 2 2 5 1 81 180 436
532 2 2 5 1 476 104 477
533 2 2 5 1 73 74 445
534 2 2 5 1 64 65 449
535 2 2 5 1 55 56 428
536 2 2 5 1 175 178 179
537 2 2 5 1 57 58 430
538 2 2 5 1 230 228 253
539 2 2 5 1 184 185 186
540 2 2 5 1 288 455 456
541 2 2 5 1 318 317 319
542 2 2 5 1 12 13 463
543 2 2 5 1 253 228 438
544 2 2 5 1 208 265 496
545 2 2 5 1 414 415 416
546 2 2 5 1 145 251 480
547 2 2 5 1 101 34 473
548 2 2 5 1 132 10 460
549 2 2 5 1 60 133 462
550 2 2 5 1 354 355 356
551 2 2 5 1 304 305 306
552 2 2 5 1 288 456 470
553 2 2 5 1 220 210 455
554 2 2 5 1 235 238 483
555 2 2 5 1 33 34 101
556 2 2 5 1 110 437 624
557 2 2 5 1 14 119 467
558 2 2 5 1 379 367 402
559 2 2 5 1 124 46 472
560 2 2 5 1 10 11 460
561 2 2 5 1 59 60 462
562 2 2 5 1 171 366 530
563 2 2 5 1 219 210 220
564 2 2 5 1 169 172 175
565 2 2 5 1 49 50 465
566 2 2 5 1 454 399 597
567 2 2 5 1 410 335 539
568 2 2 5 1 186 189 190
569 2 2 5 1 378 375 392
570 2 2 5 1 118 40 482
571 2 2 5 1 47 48 469
572 2 2 5 1 156 157 158
573 2 2 5 1 397 373 478
574 2 2 5 1 221 220 222
575 2 2 5 1 396 373 397
576 2 2 5 1 474 473 475
577 2 2 5 1 36 104 476
578 2 2 5 1 268 246 269
579 2 2 5 1 41 131 482
580 2 2 5 1 501 393 628
581 2 2 5 1 106 379 380
582 2 2 5 1 47 469 472
583 2 2 5 1 323 271 324
584 2 2 5 1 83 367 379
585 2 2 5 1 18 19 437
586 2 2 5 1 283 285 286
587 2 2 5 1 348 292 349
588 2 2 5 1 288 220 455
589 2 2 5 1 25 130 497
590 2 2 5 1 153 155 156
591 2 2 5 1 15 16 468
592 2 2 5 1 106 84 379
593 2 2 5 1 276 289 290
594 2 2 5 1 223 222 224
595 2 2 5 1 126 68 485
596 2 2 5 1 254 280 281
597 2 2 5 1 240 252 495
598 2 2 5 1 372 490 580
599 2 2 5 1 230 253 254
600 2 2 5 1 336 335 393
601 2 2 5 1 265 450 451
602 2 2 5 1 402 368 564
603 2 2 5 1 35 36 476
604 2 2 5 1 117 444 573
605 2 2 5 1 190 193 194
606 2 2 5 1 435 276 602
607 2 2 5 1 74 75 128
608 2 2 5 1 63 64 129
609 2 2 5 1 68 69 485
610 2 2 5 1 13 14 467
611 2 2 5 1 34 35 473
612 2 2 5 1 481 280 489
613 2 2 5 1 36 37 104
614 2 2 5 1 567 391 621
615 2 2 5 1 45 124 486
616 2 2 5 1 284 253 438
617 2 2 5 1 456 493 556
618 2 2 5 1 334 332 335
619 2 2 5 1 158 159 160
620 2 2 5 1 456 455 457
621 2 2 5 1 432 187 565
622 2 2 5 1 205 204 523
623 2 2 5 1 516 264 594
624 2 2 5 1 413 345 512
625 2 2 5 1 301 300 302
626 2 2 5 1 320 319 321
627 2 2 5 1 85 106 381
628 2 2 5 1 310 311 314
629 2 2 5 1 372 285 490
630 2 2 5 1 124 472 511
631 2 2 5 1 219 220 221
632 2 2 5 1 44 45 486
633 2 2 5 1 475 231 600
634 2 2 5 1 46 47 472
635 2 2 5 1 431 430 508
636 2 2 5 1 9 10 132
637 2 2 5 1 60 61 133
638 2 2 5 1 242 243 244
639 2 2 5 1 23 24 112
640 2 2 5 1 137 139 343
641 2 2 5 1 39 40 118
642 2 2 5 1 45 46 124
643 2 2 5 1 362 363 364
644 2 2 5 1 238 237 239
645 2 2 5 1 373 372 478
646 2 2 5 1 267 293 458
647 2 2 5 1 30 123 488
648 2 2 5 1 381 106 388
649 2 2 5 1 286 372 373
650 2 2 5 1 141 144 145
651 2 2 5 1 30 31 123
652 2 2 5 1 256 202 300
653 2 2 5 1 441 439 442
654 2 2 5 1 211 266 267
655 2 2 5 1 290 291 292
656 2 2 5 1 101 474 541
657 2 2 5 1 134 29 488
658 2 2 5 1 29 30 488
659 2 2 5 1 41 42 131
660 2 2 5 1 119 468 494
661 2 2 5 1 265 451 496
662 2 2 5 1 25 26 130
663 2 2 5 1 497 422 544
664 2 2 5 1 28 29 134
665 2 2 5 1 227 225 228
666 2 2 5 1 385 403 427
667 2 2 5 1 412 345 413
668 2 2 5 1 221 222 223
669 2 2 5 1 267 458 491
670 2 2 5 1 184 179 185
671 2 2 5 1 175 172 178
672 2 2 5 1 24 25 497
673 2 2 5 1 334 335 336
674 2 2 5 1 336 393 418
675 2 2 5 1 160 162 163
676 2 2 5 1 156 155 157
677 2 2 5 1 115 86 381
678 2 2 5 1 209 198 210
679 2 2 5 1 574 313 592
680 2 2 5 1 197 181 198
681 2 2 5 1 126 607 643
682 2 2 5 1 446 517 550
683 2 2 5 1 514 411 623
684 2 2 5 1 440 441 502
685 2 2 5 1 277 274 484
686 2 2 5 1 158 157 159
687 2 2 5 1 325 324 326
688 2 2 5 1 380 402 568
689 2 2 5 1 218 210 219
690 2 2 5 1 240 239 241
691 2 2 5 1 456 457 493
692 2 2 5 1 297 423 424
693 2 2 5 1 371 105 382
694 2 2 5 1 229 228 230
695 2 2 5 1 549 522 632
696 2 2 5 1 145 146 147
697 2 2 5 1 112 24 497
698 2 2 5 1 303 302 304
699 2 2 5 1 219 221 492
700 2 2 5 1 282 281 283
701 2 2 5 1 194 204 205
702 2 2 5 1 259 232 516
703 2 2 5 1 186 185 189
704 2 2 5 1 268 269 499
705 2 2 5 1 223 224 225
706 2 2 5 1 488 424 613
707 2 2 5 1 267 266 293
708 2 2 5 1 115 381 400
709 2 2 5 1 388 380 558
710 2 2 5 1 348 349 398
711 2 2 5 1 315 317 318
712 2 2 5 1 297 422 423
713 2 2 5 1 127 420 534
714 2 2 5 1 279 399 454
715 2 2 5 1 346 345 412
716 2 2 5 1 160 159 162
717 2 2 5 1 118 414 616
718 2 2 5 1 502 441 590
719 2 2 5 1 125 431 525
720 2 2 5 1 356 357 524
721 2 2 5 1 226 249 278
722 2 2 5 1 190 189 193
723 2 2 5 1 197 198 209
724 2 2 5 1 332 330 539
725 2 2 5 1 227 228 229
726 2 2 5 1 147 148 149
727 2 2 5 1 344 248 345
728 2 2 5 1 182 199 200
729 2 2 5 1 344 345 346
730 2 2 5 1 209 210 218
731 2 2 5 1 297 296 422
732 2 2 5 1 254 281 282
733 2 2 5 1 231 219 492
734 2 2 5 1 211 248 266
735 2 2 5 1 75 76 518
736 2 2 5 1 62 63 519
737 2 2 5 1 163 164 166
738 2 2 5 1 218 219 231
739 2 2 5 1 258 296 297
740 2 2 5 1 333 332 334
741 2 2 5 1 163 162 164
742 2 2 5 1 451 450 452
743 2 2 5 1 200 206 211
744 2 2 5 1 129 449 588
745 2 2 5 1 173 170 174
746 2 2 5 1 370 105 371
747 2 2 5 1 21 22 529
748 2 2 5 1 322 216 330
749 2 2 5 1 43 44 522
750 2 2 5 1 217 328 340
751 2 2 5 1 173 177 191
752 2 2 5 1 26 27 526
753 2 2 5 1 279 249 294
754 2 2 5 1 229 230 257
755 2 2 5 1 334 336 338
756 2 2 5 1 278 249 279
757 2 2 5 1 466 200 560
758 2 2 5 1 149 150 151
759 2 2 5 1 52 53 546
760 2 2 5 1 435 434 610
761 2 2 5 1 266 248 344
762 2 2 5 1 233 234 235
763 2 2 5 1 481 489 500
764 2 2 5 1 226 225 227
765 2 2 5 1 425 142 595
766 2 2 5 1 206 199 215
767 2 2 5 1 242 241 243
768 2 2 5 1 279 294 399
769 2 2 5 1 182 181 197
770 2 2 5 1 211 206 248
771 2 2 5 1 153 154 155
772 2 2 5 1 182 197 199
773 2 2 5 1 151 152 153
774 2 2 5 1 177 174 181
775 2 2 5 1 226 227 249
776 2 2 5 1 255 351 352
777 2 2 5 1 257 506 527
778 2 2 5 1 229 257 258
779 2 2 5 1 200 199 206
780 2 2 5 1 169 170 172
781 2 2 5 1 282 283 287
782 2 2 5 1 258 257 296
783 2 2 5 1 307 306 308
784 2 2 5 1 209 218 298
785 2 2 5 1 489 165 500
786 2 2 5 1 166 167 169
787 2 2 5 1 177 181 182
788 2 2 5 1 164 162 168
789 2 2 5 1 172 170 173
790 2 2 5 1 331 330 332
791 2 2 5 1 157 155 165
792 2 2 5 1 145 144 146
793 2 2 5 1 204 217 523
794 2 2 5 1 354 326 355
795 2 2 5 1 395 373 396
796 2 2 5 1 223 225 226
797 2 2 5 1 169 167 170
798 2 2 5 1 173 174 177
799 2 2 5 1 256 300 301
800 2 2 5 1 333 334 498
801 2 2 5 1 110 450 528
802 2 2 5 1 77 5 171
803 2 2 5 1 305 425 596
804 2 2 5 1 477 104 566
805 2 2 5 1 301 302 303
806 2 2 5 1 166 164 167
807 2 2 5 1 297 424 533
808 2 2 5 1 126 485 504
809 2 2 5 1 244 245 246
810 2 2 5 1 263 432 582
811 2 2 5 1 282 287 295
812 2 2 5 1 329 292 348
813 2 2 5 1 459 251 599
814 2 2 5 1 262 247 341
815 2 2 5 1 147 146 148
816 2 2 5 1 112 497 544
817 2 2 5 1 552 178 628
818 2 2 5 1 173 191 501
819 2 2 5 1 235 236 237
820 2 2 5 1 100 99 176
821 2 2 5 1 286 373 395
822 2 2 5 1 194 193 204
823 2 2 5 1 334 338 498
824 2 2 5 1 96 95 111
825 2 2 5 1 266 344 511
826 2 2 5 1 331 332 333
827 2 2 5 1 128 75 518
828 2 2 5 1 63 129 519
829 2 2 5 1 116 385 427
830 2 2 5 1 293 266 511
831 2 2 5 1 178 172 501
832 2 2 5 1 365 363 459
833 2 2 5 1 257 230 506
834 2 2 5 1 269 270 271
835 2 2 5 1 267 491 560
836 2 2 5 1 226 278 510
837 2 2 5 1 295 287 383
838 2 2 5 1 111 136 137
839 2 2 5 1 292 291 589
840 2 2 5 1 434 272 610
841 2 2 5 1 103 21 529
842 2 2 5 1 98 97 207
843 2 2 5 1 53 54 573
844 2 2 5 1 363 207 559
845 2 2 5 1 345 248 512
846 2 2 5 1 398 349 513
847 2 2 5 1 227 229 515
848 2 2 5 1 155 154 500
849 2 2 5 1 149 148 150
850 2 2 5 1 5 100 366
851 2 2 5 1 97 96 409
852 2 2 5 1 304 306 307
853 2 2 5 1 230 254 506
854 2 2 5 1 172 173 501
855 2 2 5 1 492 221 510
856 2 2 5 1 153 152 154
857 2 2 5 1 310 314 503
858 2 2 5 1 249 227 515
859 2 2 5 1 17 110 528
860 2 2 5 1 294 249 515
861 2 2 5 1 104 37 563
862 2 2 5 1 8 94 109
863 2 2 5 1 6 82 108
864 2 2 5 1 368 108 389
865 2 2 5 1 197 209 507
866 2 2 5 1 221 223 510
867 2 2 5 1 215 199 507
868 2 2 5 1 339 342 347
869 2 2 5 1 318 319 320
870 2 2 5 1 151 150 152
871 2 2 5 1 199 197 507
872 2 2 5 1 506 295 527
873 2 2 5 1 233 213 234
874 2 2 5 1 322 330 331
875 2 2 5 1 389 620 629
876 2 2 5 1 165 155 500
877 2 2 5 1 78 77 361
878 2 2 5 1 136 135 339
879 2 2 5 1 254 282 506
880 2 2 5 1 79 78 161
881 2 2 5 1 309 308 310
882 2 2 5 1 81 80 180
883 2 2 5 1 44 486 522
884 2 2 5 1 95 8 135
885 2 2 5 1 290 292 329
886 2 2 5 1 401 116 427
887 2 2 5 1 461 574 592
888 2 2 5 1 189 185 195
889 2 2 5 1 229 258 515
890 2 2 5 1 200 211 560
891 2 2 5 1 390 495 564
892 2 2 5 1 82 81 436
893 2 2 5 1 395 396 426
894 2 2 5 1 209 298 507
895 2 2 5 1 265 350 450
896 2 2 5 1 83 6 367
897 2 2 5 1 206 215 512
898 2 2 5 1 248 206 512
899 2 2 5 1 141 143 144
900 2 2 5 1 340 328 394
901 2 2 5 1 208 260 265
902 2 2 5 1 85 84 106
903 2 2 5 1 93 92 105
904 2 2 5 1 307 309 327
905 2 2 5 1 505 103 642
906 2 2 5 1 179 178 552
907 2 2 5 1 139 140 141
908 2 2 5 1 130 26 526
909 2 2 5 1 223 226 510
910 2 2 5 1 356 355 357
911 2 2 5 1 330 216 521
912 2 2 5 1 279 454 541
913 2 2 5 1 368 390 564
914 2 2 5 1 217 340 523
915 2 2 5 1 590 441 636
916 2 2 5 1 244 243 245
917 2 2 5 1 485 69 551
918 2 2 5 1 273 276 610
919 2 2 5 1 378 392 514
920 2 2 5 1 320 321 359
921 2 2 5 1 22 23 576
922 2 2 5 1 217 216 322
923 2 2 5 1 282 295 506
924 2 2 5 1 176 99 362
925 2 2 5 1 84 83 379
926 2 2 5 1 364 363 365
927 2 2 5 1 201 496 531
928 2 2 5 1 204 193 216
929 2 2 5 1 370 471 579
930 2 2 5 1 365 459 599
931 2 2 5 1 269 246 270
932 2 2 5 1 294 515 533
933 2 2 5 1 303 304 520
934 2 2 5 1 304 307 520
935 2 2 5 1 307 308 309
936 2 2 5 1 356 524 634
937 2 2 5 1 309 310 313
938 2 2 5 1 255 352 540
939 2 2 5 1 137 138 139
940 2 2 5 1 204 216 217
941 2 2 5 1 87 86 115
942 2 2 5 1 91 90 116
943 2 2 5 1 217 322 328
944 2 2 5 1 152 150 188
945 2 2 5 1 180 376 377
946 2 2 5 1 351 262 353
947 2 2 5 1 422 296 544
948 2 2 5 1 201 143 202
949 2 2 5 1 235 234 236
950 2 2 5 1 140 138 142
951 2 2 5 1 7 88 120
952 2 2 5 1 515 258 533
953 2 2 5 1 203 531 571
954 2 2 5 1 208 202 256
955 2 2 5 1 86 85 381
956 2 2 5 1 419 126 643
957 2 2 5 1 123 31 597
958 2 2 5 1 416 415 537
959 2 2 5 1 237 236 299
960 2 2 5 1 397 452 624
961 2 2 5 1 180 80 374
962 2 2 5 1 392 375 614
963 2 2 5 1 313 310 503
964 2 2 5 1 241 239 250
965 2 2 5 1 296 257 527
966 2 2 5 1 236 234 261
967 2 2 5 1 407 303 408
968 2 2 5 1 335 332 539
969 2 2 5 1 39 118 616
970 2 2 5 1 109 94 369
971 2 2 5 1 255 262 351
972 2 2 5 1 258 297 533
973 2 2 5 1 107 52 546
974 2 2 5 1 307 327 520
975 2 2 5 1 620 594 629
976 2 2 5 1 525 431 633
977 2 2 5 1 124 511 577
978 2 2 5 1 255 247 262
979 2 2 5 1 404 268 558
980 2 2 5 1 301 303 407
981 2 2 5 1 187 435 565
982 2 2 5 1 245 247 255
983 2 2 5 1 410 552 628
984 2 2 5 1 144 143 201
985 2 2 5 1 340 444 583
986 2 2 5 1 341 247 538
987 2 2 5 1 76 1 605
988 2 2 5 1 1 9 605
989 2 2 5 1 4 62 606
990 2 2 5 1 61 4 606
991 2 2 5 1 265 260 350
992 2 2 5 1 141 140 143
993 2 2 5 1 148 146 203
994 2 2 5 1 542 400 627
995 2 2 5 1 42 3 608
996 2 2 5 1 3 43 608
997 2 2 5 1 27 2 611
998 2 2 5 1 2 28 611
999 2 2 5 1 205 523 535
1000 2 2 5 1 323 325 627
1001 2 2 5 1 113 463 553
1002 2 2 5 1 312 305 596
1003 2 2 5 1 432 565 582
1004 2 2 5 1 103 529 642
1005 2 2 5 1 339 347 561
1006 2 2 5 1 139 138 140
1007 2 2 5 1 193 189 521
1008 2 2 5 1 498 338 570
1009 2 2 5 1 245 243 247
1010 2 2 5 1 213 205 535
1011 2 2 5 1 584 333 622
1012 2 2 5 1 201 202 208
1013 2 2 5 1 553 327 574
1014 2 2 5 1 208 256 260
1015 2 2 5 1 136 339 561
1016 2 2 5 1 531 496 571
1017 2 2 5 1 341 538 572
1018 2 2 5 1 429 428 637
1019 2 2 5 1 314 315 631
1020 2 2 5 1 105 92 382
1021 2 2 5 1 425 595 596
1022 2 2 5 1 533 424 547
1023 2 2 5 1 324 271 360
1024 2 2 5 1 453 586 599
1025 2 2 5 1 317 316 640
1026 2 2 5 1 458 293 635
1027 2 2 5 1 218 231 554
1028 2 2 5 1 493 167 556
1029 2 2 5 1 464 107 584
1030 2 2 5 1 146 144 531
1031 2 2 5 1 137 136 138
1032 2 2 5 1 291 289 621
1033 2 2 5 1 368 389 390
1034 2 2 5 1 541 474 555
1035 2 2 5 1 278 279 541
1036 2 2 5 1 471 370 578
1037 2 2 5 1 318 320 337
1038 2 2 5 1 189 195 521
1039 2 2 5 1 246 245 540
1040 2 2 5 1 116 90 385
1041 2 2 5 1 216 193 521
1042 2 2 5 1 159 502 590
1043 2 2 5 1 437 396 624
1044 2 2 5 1 278 541 555
1045 2 2 5 1 251 453 599
1046 2 2 5 1 180 374 376
1047 2 2 5 1 408 303 520
1048 2 2 5 1 504 326 607
1049 2 2 5 1 132 460 603
1050 2 2 5 1 538 250 572
1051 2 2 5 1 357 358 406
1052 2 2 5 1 412 482 549
1053 2 2 5 1 486 124 577
1054 2 2 5 1 120 88 387
1055 2 2 5 1 234 213 535
1056 2 2 5 1 399 294 547
1057 2 2 5 1 275 277 567
1058 2 2 5 1 450 350 528
1059 2 2 5 1 167 164 556
1060 2 2 5 1 396 397 624
1061 2 2 5 1 511 344 577
1062 2 2 5 1 490 154 580
1063 2 2 5 1 459 363 559
1064 2 2 5 1 478 188 641
1065 2 2 5 1 554 477 566
1066 2 2 5 1 138 136 561
1067 2 2 5 1 358 485 551
1068 2 2 5 1 338 458 570
1069 2 2 5 1 237 299 532
1070 2 2 5 1 239 237 532
1071 2 2 5 1 328 322 548
1072 2 2 5 1 144 201 531
1073 2 2 5 1 270 246 540
1074 2 2 5 1 482 131 549
1075 2 2 5 1 495 252 564
1076 2 2 5 1 487 360 626
1077 2 2 5 1 162 159 590
1078 2 2 5 1 424 423 613
1079 2 2 5 1 517 337 550
1080 2 2 5 1 70 127 604
1081 2 2 5 1 245 255 540
1082 2 2 5 1 447 448 625
1083 2 2 5 1 322 331 548
1084 2 2 5 1 202 143 543
1085 2 2 5 1 385 386 403
1086 2 2 5 1 346 412 549
1087 2 2 5 1 357 355 358
1088 2 2 5 1 376 378 581
1089 2 2 5 1 195 185 552
1090 2 2 5 1 261 234 535
1091 2 2 5 1 294 533 547
1092 2 2 5 1 150 148 536
1093 2 2 5 1 609 487 626
1094 2 2 5 1 243 241 538
1095 2 2 5 1 565 329 582
1096 2 2 5 1 54 117 573
1097 2 2 5 1 295 383 545
1098 2 2 5 1 188 150 536
1099 2 2 5 1 296 527 544
1100 2 2 5 1 250 239 532
1101 2 2 5 1 211 267 560
1102 2 2 5 1 562 120 598
1103 2 2 5 1 231 492 600
1104 2 2 5 1 331 333 584
1105 2 2 5 1 203 146 531
1106 2 2 5 1 544 527 545
1107 2 2 5 1 140 142 543
1108 2 2 5 1 469 102 635
1109 2 2 5 1 185 179 552
1110 2 2 5 1 154 152 580
1111 2 2 5 1 298 218 554
1112 2 2 5 1 537 415 638
1113 2 2 5 1 527 295 545
1114 2 2 5 1 241 250 538
1115 2 2 5 1 453 192 586
1116 2 2 5 1 393 410 628
1117 2 2 5 1 247 243 538
1118 2 2 5 1 276 290 602
1119 2 2 5 1 443 263 585
1120 2 2 5 1 517 314 631
1121 2 2 5 1 37 38 563
1122 2 2 5 1 349 292 589
1123 2 2 5 1 494 260 619
1124 2 2 5 1 143 140 543
1125 2 2 5 1 553 463 575
1126 2 2 5 1 148 203 536
1127 2 2 5 1 164 168 556
1128 2 2 5 1 112 544 545
1129 2 2 5 1 479 571 612
1130 2 2 5 1 464 584 622
1131 2 2 5 1 535 523 583
1132 2 2 5 1 569 487 609
1133 2 2 5 1 534 359 617
1134 2 2 5 1 309 313 574
1135 2 2 5 1 452 397 612
1136 2 2 5 1 431 508 572
1137 2 2 5 1 467 408 630
1138 2 2 5 1 536 479 641
1139 2 2 5 1 460 461 603
1140 2 2 5 1 377 516 594
1141 2 2 5 1 510 278 555
1142 2 2 5 1 407 494 619
1143 2 2 5 1 436 377 620
1144 2 2 5 1 486 577 632
1145 2 2 5 1 142 138 561
1146 2 2 5 1 492 510 555
1147 2 2 5 1 261 535 583
1148 2 2 5 1 122 487 569
1149 2 2 5 1 23 112 576
1150 2 2 5 1 519 129 557
1151 2 2 5 1 465 464 622
1152 2 2 5 1 479 478 641
1153 2 2 5 1 398 513 586
1154 2 2 5 1 508 341 572
1155 2 2 5 1 530 291 621
1156 2 2 5 1 470 168 636
1157 2 2 5 1 563 38 616
1158 2 2 5 1 326 324 607
1159 2 2 5 1 349 589 591
1160 2 2 5 1 344 346 577
1161 2 2 5 1 524 403 634
1162 2 2 5 1 571 451 612
1163 2 2 5 1 272 273 610
1164 2 2 5 1 462 133 601
1165 2 2 5 1 299 618 637
1166 2 2 5 1 406 358 551
1167 2 2 5 1 260 256 619
1168 2 2 5 1 301 407 619
1169 2 2 5 1 474 475 600
1170 2 2 5 1 496 451 571
1171 2 2 5 1 507 298 638
1172 2 2 5 1 327 309 574
1173 2 2 5 1 518 76 605
1174 2 2 5 1 62 519 606
1175 2 2 5 1 299 236 618
1176 2 2 5 1 360 271 626
1177 2 2 5 1 329 348 582
1178 2 2 5 1 43 522 608
1179 2 2 5 1 337 517 631
1180 2 2 5 1 526 27 611
1181 2 2 5 1 168 162 590
1182 2 2 5 1 31 32 597
1183 2 2 5 1 298 537 638
1184 2 2 5 1 397 479 612
1185 2 2 5 1 352 351 588
1186 2 2 5 1 152 188 580
1187 2 2 5 1 347 342 587
1188 2 2 5 1 416 537 566
1189 2 2 5 1 9 132 605
1190 2 2 5 1 133 61 606
1191 2 2 5 1 545 383 576
1192 2 2 5 1 318 337 631
1193 2 2 5 1 259 516 581
1194 2 2 5 1 131 42 608
1195 2 2 5 1 28 134 611
1196 2 2 5 1 134 488 613
1197 2 2 5 1 342 579 587
1198 2 2 5 1 522 486 632
1199 2 2 5 1 112 545 576
1200 2 2 5 1 451 452 612
1201 2 2 5 1 575 463 630
1202 2 2 5 1 370 371 578
1203 2 2 5 1 38 39 616
1204 2 2 5 1 577 346 632
1205 2 2 5 1 595 347 596
1206 2 2 5 1 383 287 642
1207 2 2 5 1 357 406 615
1208 2 2 5 1 540 352 609
1209 2 2 5 1 561 347 595
1210 2 2 5 1 523 340 583
1211 2 2 5 1 132 518 605
1212 2 2 5 1 519 133 606
1213 2 2 5 1 127 534 617
1214 2 2 5 1 520 327 575
1215 2 2 5 1 548 331 584
1216 2 2 5 1 327 553 575
1217 2 2 5 1 522 131 608
1218 2 2 5 1 107 548 584
1219 2 2 5 1 134 526 611
1220 2 2 5 1 290 329 602
1221 2 2 5 1 587 312 596
1222 2 2 5 1 403 386 634
1223 2 2 5 1 408 520 575
1224 2 2 5 1 386 562 634
1225 2 2 5 1 448 592 625
1226 2 2 5 1 525 299 637
1227 2 2 5 1 324 360 607
1228 2 2 5 1 529 383 642
1229 2 2 5 1 178 501 628
1230 2 2 5 1 333 498 622
1231 2 2 5 1 503 314 639
1232 2 2 5 1 503 447 625
1233 2 2 5 1 618 429 637
1234 2 2 5 1 120 387 598
1235 2 2 5 1 325 542 627
1236 2 2 5 1 287 505 642
1237 2 2 5 1 378 514 623
1238 2 2 5 1 314 517 639
1239 2 2 5 1 256 301 619
1240 2 2 5 1 102 570 635
1241 2 2 5 1 555 474 600
1242 2 2 5 1 270 540 609
1243 2 2 5 1 615 406 617
1244 2 2 5 1 498 465 622
1245 2 2 5 1 236 261 618
1246 2 2 5 1 215 507 638
1247 2 2 5 1 492 555 600
1248 2 2 5 1 271 270 626
1249 2 2 5 1 461 592 603
1250 2 2 5 1 359 615 617
1251 2 2 5 1 557 353 601
1252 2 2 5 1 589 384 591
1253 2 2 5 1 270 609 626
1254 2 2 5 1 390 389 629
1255 2 2 5 1 329 565 602
1256 2 2 5 1 315 318 631
1257 2 2 5 1 313 503 625
1258 2 2 5 1 607 360 643
1259 2 2 5 1 316 578 640
1260 2 2 5 1 347 587 596
1261 2 2 5 1 406 604 617
1262 2 2 5 1 565 435 602
1263 2 2 5 1 517 446 639
1264 2 2 5 1 594 264 629
1265 2 2 5 1 406 551 604
1266 2 2 5 1 431 572 633
1267 2 2 5 1 352 569 609
1268 2 2 5 1 524 357 615
1269 2 2 5 1 346 549 632
1270 2 2 5 1 142 561 595
1271 2 2 5 1 581 378 623
1272 2 2 5 1 250 532 633
1273 2 2 5 1 572 250 633
1274 2 2 5 1 604 127 617
1275 2 2 5 1 578 371 640
1276 2 2 5 1 371 593 640
1277 2 2 5 1 592 448 603
1278 2 2 5 1 377 594 620
1279 2 2 5 1 593 317 640
1280 2 2 5 1 259 581 623
1281 2 2 5 1 188 536 641
1282 2 2 5 1 570 458 635
1283 2 2 5 1 592 313 625
1284 2 2 5 1 408 575 630
1285 2 2 5 1 168 590 636
1286 2 2 5 1 562 356 634
$EndElements
