<?xml version="1.0"?>
<VTKFile type="UnstructuredGrid" version="2.2">
  <UnstructuredGrid>
    <Piece NumberOfPoints="643" NumberOfCells="1186">
      <Points>
        <DataArray type="Float64" NumberOfComponents="3" format="ascii">10 2.499999999993841 0 10 2.999999999992383 0 9.514741601151743 2.709371331084244 0 9.68028289939671 2.24988858269137 0 9.551649082667568 3.257218496036085 0 10 1.999999999995299 0 9.274757368387808 2.25212394575435 0 10 3.499999999990925 0 9.103527059296347 3.081217687509338 0 8.980560537661319 2.640166893219061 0 9.545046104138811 1.78741283357376 0 9.571282958047124 3.742559698725403 0 9.166837254393533 3.528132188773818 0 8.839412350155367 2.206029940793697 0 10 1.499999999996755 0 9.123983098530619 1.881457087270963 0 10 3.999999999989554 0 8.775406918853674 3.386336401637636 0 8.658628915668841 2.971008543538892 0 8.533610067968203 2.551499411192141 0 9.589267605499538 1.244195701139242 0 9.096142213106491 1.421963786998213 0 9.56886803807952 4.253257537178974 0 9.172302208663313 3.984102721016326 0 8.873372251393892 3.741409467921712 0 8.390856412117861 2.124747304308438 0 8.715406538827544 1.778011804744177 0 10 0.9999999999981901 0 10 4.499999999990784 0 8.494061795691444 3.701977038274783 0 8.356014236678016 3.294273483807275 0 8.229500305185688 2.883774478441187 0 8.08978652251896 2.46286637288412 0 9.617269427021196 0.7558049811428145 0 9.281361255329319 0.9642754058915135 0 8.570578623461493 1.340622302744458 0 9.524922483362191 4.815340937072293 0 9.134044741548474 4.443349954915932 0 8.709020412278994 4.139232080476543 0 7.94559393622166 2.041028987856757 0 8.254362072515798 1.697637662715047 0 10 0.4999999999989861 0 8.874742646511113 0.922872187416181 0 10 4.999999999992101 0 8.069752018099173 3.618887509793863 0 8.208194502213642 4.033721628550598 0 7.935397421187893 3.208584660390998 0 7.791157793980634 2.792708657865612 0 7.647043077990939 2.373789172731318 0 9.633974596216087 0.366025403783432 0 9.229384384508268 0.4765403727611173 0 8.412290734325467 0.8829966015686521 0 8.108879335162957 1.259782090033507 0 9.64049182015358 5.298833769014974 0 8.991112420672875 4.870655660958562 0 8.756404567441892 4.569900244723554 0 8.337796856643157 4.455423895462013 0 7.504364485902166 1.956284510668676 0 7.801776152345429 1.61049851734572 0 10 -7.885021997402413e-18 0 8.713485757655585 0.4526019392093891 0 10 5.499999999993417 0 9.221120961336052 5.296823249563954 0 7.780780192086788 3.939290871235913 0 7.645074482658343 3.529476747081841 0 7.913749249906498 4.355290248941619 0 7.500300877846092 3.120307969014776 0 7.361699977065824 2.706155493781842 0 7.211215343343341 2.287398943908681 0 9.499999999999238 -1.026576648241331e-17 0 8.999999999998472 -9.750078026946396e-18 0 7.943209975449768 0.8330548732580013 0 8.226479606601206 0.429216338384359 0 7.662033182778202 1.183208482634249 0 9.716875266583941 5.749999999994079 0 9.329442099104723 5.712120937041971 0 8.799782164488057 5.194304706478323 0 8.510399605860604 4.904214872997328 0 8.044414228640374 4.777944497450263 0 7.067664625602528 1.875734250258266 0 7.36156249471913 1.535124932693453 0 8.499999999997707 -9.24629884926687e-18 0 10 5.999999999994734 0 8.79784207929082 5.612433123462747 0 7.493794364516186 4.254562179222511 0 7.358314635049809 3.847615592275775 0 7.224791946380113 3.441123796780245 0 7.623057081661639 4.673200954716737 0 7.081998246015791 3.038316647064411 0 6.933790150059801 2.614540565553628 0 6.786169162056312 2.199963285014495 0 7.492699974092803 0.7737641436333617 0 7.751859664754391 0.4055976173195229 0 7.999999999996943 -8.737497729940915e-18 0 7.212329788303337 1.119153365709244 0 9.542327823160317 6.229486070824382 0 8.984425187355638 6.120487469903846 0 8.497489361932201 5.312186671973888 0 8.174713260613697 5.1923537121836 0 7.751686461796725 5.100415015552772 0 6.921206733383126 1.465870469544562 0 6.640173763208819 1.796641245654421 0 10 6.49999999999605 0 8.48018757502085 6.024540598618139 0 8.321393463229487 5.609232591409739 0 7.211515270039293 4.569169953656982 0 7.079450897637625 4.176119863985861 0 6.947367855216726 3.771271490428876 0 6.802154146401766 3.340636738474573 0 7.335499684999274 4.995719789675348 0 6.672404616208573 2.935627487621038 0 6.529718616335089 2.524295359043167 0 6.371748976399774 2.113547061168993 0 7.048139626325878 0.7197269937161636 0 7.266156642134337 0.381202467319169 0 7.499999999996183 -8.211970560530197e-18 0 6.787523214800702 1.043196224195646 0 9.568430721767896 6.761850986878004 0 9.098655967064238 6.57974763780034 0 8.611262187094118 6.477903431680526 0 7.882573864633033 5.518320416933441 0 7.454209656337495 5.43779328985862 0 6.49548523862169 1.37074244018295 0 6.216651075412726 1.712829445867346 0 10 6.999999999997367 0 8.151086046744036 6.380522402722983 0 8.015116486411012 5.946664572529007 0 6.932328267699803 4.893996105182302 0 6.802579030448593 4.513330371949214 0 6.682383876795194 4.143026299129647 0 6.695261153791072 3.615760666746098 0 6.384286952374129 3.199178100167029 0 7.045221593926735 5.332555928123783 0 6.27475721204631 2.828002571218192 0 6.134800909217 2.436595074846695 0 5.98615437084882 2.060090858897408 0 6.665304951023422 0.7360051325410538 0 6.804240587641356 0.388126049245966 0 6.999999999995424 -8.361120305955828e-18 0 6.371455748204031 0.9688851328843128 0 9.57921829475915 7.248682443237544 0 9.190382245623679 7.013189769412347 0 8.756370167208555 6.889781157100361 0 8.291345214567075 6.811470266711528 0 7.582881224128833 5.870788295837405 0 6.547339416131209 3.834840144096916 0 6.460130354831719 3.533546906928029 0 7.154943317578555 5.767370186531834 0 6.072415274965452 1.295672074207459 0 5.802211100257688 1.649340255417755 0 10 7.499999999998684 0 7.83277555735934 6.715495924697822 0 7.711399450563148 6.285246988769174 0 6.652482475967911 5.213646144858155 0 6.537671230605873 4.818268905164108 0 6.414634145902706 4.45128882231576 0 6.302931915434309 4.111307102001265 0 6.008921205047089 3.087438896058965 0 6.113147001964469 3.444886414703975 0 6.71627310338088 5.662056571163785 0 5.886267778304574 2.723937368386709 0 5.760158501367448 2.369697230365702 0 5.615052532551903 1.994110517980666 0 6.273371341563512 0.49118064005559 0 6.499999999994666 -1.058115123022462e-17 0 5.934634468249422 0.8765142861231802 0 9.633974596214722 7.633974596214369 0 9.2207638096334 7.53578384255628 0 8.874969731695986 7.251941751861779 0 8.487220419552722 7.217809885166663 0 8.001402684785019 7.167765786085822 0 7.266259888699089 6.189719107382943 0 6.203560431713379 3.77676226046959 0 6.819370671568534 6.092090375425452 0 5.648122942156696 1.247183193262043 0 5.395146049375522 1.599850691430401 0 10 8 0 7.3930159509965 6.614871917417002 0 7.472052456389748 7.119616193873815 0 6.264502844367219 5.116682812403836 0 6.37471649302153 5.501700944387766 0 6.15369763478235 4.74386309590897 0 6.036846607157436 4.38944427923188 0 5.940255362777774 4.035927253636727 0 5.644064769238875 2.992335849696774 0 5.750631572245758 3.335115021032379 0 5.85401245231844 3.681489440632579 0 6.344790061279011 5.928979613144466 0 5.538542267660499 2.649214323133123 0 5.425836187477576 2.310902378994304 0 5.320808985984371 1.974781692778427 0 5.73986723961266 0.4376713924078413 0 5.999999999993906 -9.428439996507648e-18 0 5.495127399164392 0.8333630835743439 0 9.500000000000002 8 0 8.720112016461577 7.603144105073249 0 8.232432919919448 7.583202012072569 0 7.738711243161121 7.573787064612856 0 6.935948717358975 6.507946880316802 0 6.471639086393474 6.399169611995377 0 5.212519348447164 1.165017789393625 0 5.178634995258955 1.77278309809609 0 9.000000000000002 8 0 7.034254146405149 6.916532563773973 0 7.256065766231798 7.588885126090318 0 5.885999162097123 5.026013600313036 0 5.991149354292921 5.375819213068893 0 6.104535748747538 5.667414667621783 0 5.769955116300839 4.676166074684448 0 5.619114875980592 4.327194356615955 0 5.60376979318113 3.939606679012352 0 5.32292314497469 2.911849611823603 0 5.431442734608685 3.255892485788103 0 5.535605388860246 3.606249520580463 0 6.048373762629923 6.303973743404815 0 5.199146406048565 2.56765316439159 0 5.095072747019538 2.239827964767553 0 5.001249508942021 1.583798747821586 0 4.997335436733906 1.932701260353946 0 5.499999999993148 -8.97524255503405e-18 0 5.283725131459571 0.4166338129865488 0 5.15951309525341 0.7553191210400658 0 8.500000000000004 8 0 8.000000000000004 8 0 7.058342253719625 7.270447849012888 0 7.500000000000005 8 0 6.585708792661348 6.816080154507067 0 5.897111979818282 5.928223534067961 0 6.162764722991635 6.708420955164372 0 4.883825785000672 1.256410154969053 0 4.863099193280867 0.9334326977771353 0 6.754659836164481 7.14899421916657 0 6.750000000000004 7.566987298107782 0 7.000000000000007 8 0 5.518284627886546 4.943195285405686 0 5.614236500607829 5.291237736840704 0 5.740261843799118 5.619290894343725 0 5.406603186831157 4.623093361623868 0 5.328784946896787 4.131807374581632 0 5.320213631979906 3.843880370514352 0 4.97354419635737 2.858584738007258 0 5.138701367664421 3.182353502795944 0 5.244765565690131 3.514371479414286 0 5.750173479359085 6.614124357881561 0 5.626838720170658 6.236336216186596 0 4.87071190922465 2.487150139004266 0 4.769863252411249 2.173243391980245 0 4.638078992207388 1.527908395208796 0 4.667773530296116 1.860500875181295 0 4.999999999992389 -1.027306345389603e-17 0 4.797602946536291 0.4768791006599407 0 6.332654456332812 7.16931130840515 0 5.462177269753504 5.899713190921346 0 5.283436095087489 4.388613016663627 0 5.860438319825115 6.993484266514824 0 4.588617366260832 1.209949002723581 0 4.469729199072878 0.8227803028196331 0 6.500000000000007 8 0 5.259885702649461 5.207521465154025 0 5.168826459845042 4.872277376685639 0 5.352331653206885 5.555279782819638 0 5.074102731562482 4.568880773594743 0 5.121174935608212 3.995438262493773 0 5.017943590032506 4.255363323530756 0 5.059504036105163 3.765665783186082 0 4.649581805962562 2.726917104104 0 4.859470349855674 3.170146438141296 0 4.971029106652644 3.467123606491954 0 5.445032516108392 6.900727927773336 0 5.338864410930653 6.521513198232835 0 5.188052567071371 6.15496957381854 0 4.552584789663505 2.413047786744241 0 4.454211071259524 2.10686672767644 0 4.354077607180834 1.806930160626257 0 4.308854214758632 1.47862306703089 0 4.499999999991629 -8.967463389468563e-18 0 4.278995417667542 0.4162727014743496 0 6.222152082780545 7.597142708532092 0 6.003245035579755 7.328249533577913 0 5.098626134889169 5.810493611043546 0 4.742382417458794 2.95599893097561 0 5.566027996167321 7.274864653496121 0 4.190388017555492 1.128238235210463 0 4.028049159549806 0.7646304299182467 0 6.000000000000009 8 0 5.006287064352902 5.466728959287214 0 4.936344838459289 5.113974482666706 0 4.853237145362132 4.78243945176226 0 4.778471706741907 4.496182429270071 0 4.879428473026704 3.980474460656042 0 4.800189435395902 3.700010523915325 0 4.338755399657203 2.638537216264428 0 4.44949312715553 2.844068427258421 0 4.540074603625817 3.17558855250972 0 4.695683622243834 3.431805064690557 0 5.052190822097347 6.798309218766877 0 5.147513267293993 7.215037824131147 0 4.946392803175907 6.42347043034946 0 4.845789387776614 6.063088070375976 0 4.242058731525214 2.342363252905392 0 4.144577895346442 2.044498146914612 0 4.050224188166871 1.736861587413022 0 3.943780567534143 1.406675287868637 0 3.999999999991009 -8.759920535499453e-18 0 3.753686450378587 0.4066384915822992 0 5.756580439759532 7.611876586523969 0 4.757021777259643 5.715830646019577 0 4.714805951927466 4.213882654593545 0 5.291973143490596 7.604773984867996 0 3.779235259060064 1.088035041644451 0 3.476256532196866 0.793726829292048 0 5.50000000000001 8 0 4.688631409710294 5.366720609119779 0 4.590280800306655 5.003965088447396 0 4.569814558762029 4.687000499697567 0 4.527024268826194 4.449777018241759 0 4.596445427297674 3.912285829591303 0 4.578074105077839 3.654178301284298 0 4.03996671105378 2.558042279349706 0 4.145397654666458 2.846140347925739 0 4.329870697895147 3.054013323409627 0 4.43949011655772 3.479975597391491 0 4.668895809126504 6.698150225795658 0 4.753463315821364 7.105265480670413 0 4.821647953851218 7.608353263550661 0 4.58453228453783 6.324272430945993 0 4.50141222395171 5.966441231050394 0 3.944987848586274 2.276770905016313 0 3.839831296749625 1.986629912526481 0 3.715151156924878 1.679434698466518 0 3.575713808213361 1.361355184944067 0 3.499999999992435 -9.206555251914108e-18 0 3.259008993171065 0.4273714270735672 0 4.392437019110495 5.594905320323652 0 4.466822744864748 4.168877469282484 0 4.273124976433052 3.290845782111257 0 5.000000000000011 8 0 3.426059742768804 1.090501408310632 0 3.085658745486895 0.9071351914797066 0 4.390129059829571 5.275589884048077 0 4.36725690078523 4.803572447347826 0 4.262270912377653 4.601815675788242 0 4.329776272334112 4.340176740354469 0 4.373090362739769 3.97445955333652 0 4.384429161823769 3.744878240372072 0 3.747916985846896 2.492668800205561 0 3.820683646040637 2.751773153780801 0 4.094731835419834 3.115583819550718 0 4.16555423014202 3.582557643381048 0 4.309841795441545 6.587151796235934 0 4.36179359664779 6.966188938425594 0 4.456832658508034 7.380084959091751 0 4.500000000000012 8 0 4.238045363640494 6.219561297027677 0 4.158457153132888 5.876273453567601 0 3.650873191635555 2.220347448153738 0 3.508234755668459 1.936888721370079 0 3.356707762762738 1.633027545188473 0 3.20969712423891 1.308321297899055 0 2.999999999993896 -8.966206763089877e-18 0 2.779095566996289 0.4162143684503182 0 4.329399020458125 5.018557354363014 0 4.189007210967254 5.385371095113858 0 4.213025894036046 4.136270144057924 0 3.911301352300256 2.967846670468806 0 4.012523414052459 3.353947279357707 0 4.05797380964421 5.583944927923454 0 2.680125774997046 0.8769074867993113 0 4.1419072837992 5.163776659761916 0 4.109347940260798 4.88178785653938 0 4.120993948858681 4.392252749748288 0 4.180405117164721 3.864566491635991 0 3.474200076230443 2.4354465794352 0 3.55886836161342 2.699412672762509 0 3.65590506415271 2.965524589599136 0 3.839788561221646 3.160211441487641 0 3.900968868381259 3.566116261876763 0 3.988937881129535 6.466858766040667 0 4.061462205751818 6.819354823921686 0 3.941950632325267 7.152622212882802 0 4.125081993314518 7.624532687730065 0 3.906540341796006 6.115143008932932 0 3.831855475512297 5.794215502127923 0 3.360009130075493 2.175947490176508 0 3.12683599586247 1.925945233708759 0 2.83945397971778 1.240679011886942 0 2.979799133772143 1.587034448577886 0 2.499999999995357 -9.203524451307366e-18 0 2.508316846586378 0.6450241070867087 0 4.005603840590272 4.631862775738385 0 3.941341733918881 5.336644785482624 0 3.974927911983317 4.222520934826029 0 4 4 0 3.974927912326672 3.777479066678306 0 3.781831483399142 3.376510199308844 0 4.000000000000013 8 0 3.767291165310306 5.520163158236772 0 2.244164090013623 0.4272307362782549 0 2.469224714235631 1.188634580853627 0 2.329881954338552 0.8597438368189509 0 3.854611079204375 5.112930753362133 0 3.828889629720265 4.864093597128636 0 3.900968866924181 4.433883741148894 0 3.308688172739262 2.636580958224906 0 3.213189092482224 2.395461336117245 0 3.380833186015718 2.878926611763143 0 3.623489803213467 3.218168518612334 0 3.657795147733983 6.353155247296682 0 3.759942432413367 6.706786422829104 0 3.726626675739265 7.589956266675775 0 3.578982592961143 6.021689378044845 0 3.550725379166107 5.719699050317203 0 3.104858227193253 2.188726157039572 0 2.742921109103424 1.857724299257041 0 2.613617732497922 1.536476570208149 0 1.999999999996818 -8.766476891589241e-18 0 3.781831480358262 4.6234898045043 0 3.632833365310046 5.259516723074782 0 3.433883739943024 3.099031132495104 0 3.496681242859998 6.926033509290598 0 3.520339641237141 7.258771729793764 0 3.500000000000014 8 0 3.540720294512913 5.482960772082835 0 2.858484244054288 2.133017225766777 0 1.746994422055894 0.4069428398626089 0 2.244699193889176 1.493562477386037 0 2.10774576831511 1.141935604295447 0 1.947157230262766 0.7850941979703813 0 3.624193778014107 5.012431293582206 0 3.623489799678581 4.781831484206644 0 3.147081655474222 2.821837017084949 0 3.055698117101504 2.590280595361616 0 2.957055614808724 2.361997140482739 0 3.222520933986074 3.025072087824969 0 3.32104761344995 6.251196857329385 0 3.403917180989029 6.584296925583897 0 3.222035181135487 7.524682441109701 0 3.243213803068354 5.876715425649139 0 3.339197501865991 5.573260968085132 0 2.384003257111805 1.83532692032916 0 2.52653471785591 2.12216326612731 0 1.499999999998279 -8.969988457743047e-18 0 3.429845604899843 5.315334559267244 0 3.392252745987088 5.120993948511105 0 3.137099859041308 6.840520132047849 0 3.236588678404447 7.141769943896603 0 3.000000000000015 8 0 2.692699799501951 2.341547257985237 0 1.270893492284574 0.4163899160027369 0 1.514568946651135 0.7572455648817199 0 2.012299699700636 1.805449001282434 0 1.86483241827442 1.44891368503697 0 1.691173385167486 1.110364813098963 0 3.433883737537089 4.900968868663534 0 3 3 0 2.902272434341638 2.803794694879311 0 2.800754813104196 2.575081957184976 0 2.984006412695211 6.1334704982409 0 3.059146703902474 6.481801694747717 0 2.883049011526133 7.155668419572526 0 2.730961966947705 7.584068166638319 0 3.080305459125046 5.608724754738575 0 3.229474175994261 5.371740683016523 0 2.169792639266808 2.125726065227068 0 2.357978739275172 2.416326022695731 0 0.9999999999991849 -1.045266238481155e-17 0 3.222520933094208 4.974927912378595 0 2.890150623934604 5.822287573142483 0 2.800768461280498 6.722149876026385 0 2.500000000000017 8 0 2.56782873154404 2.564047630856566 0 0.7857849343895436 0.4852161441366847 0 1.142156956298641 0.7589790539590756 0 1.293189568672493 1.086790983523154 0 1.787267037930214 2.11938735649509 0 1.631947940426137 1.762731250175016 0 1.473769755350684 1.426624075889971 0 3.122344304492052 5.178255023993804 0 2.777479066678305 3.025072087673329 0 2.637509329656722 2.841846937116431 0 2.721670146678827 6.367639489998768 0 2.644020625610524 6.027450365943278 0 2.455321486571379 7.217081988543505 0 2.25870507972266 7.586217045070979 0 2.784031472367689 5.561257966885273 0 2.99443209600625 5.388792433074649 0 1.957085736453723 2.454615242375351 0 2.397255163882859 2.731708893032605 0 0.499999999999549 -7.885021997422444e-18 0 3 5.000000000000001 0 2.563791130336807 5.726096984853749 0 2.454139477403056 6.604379630196287 0 2.565880100914907 6.916033281331118 0 2.000000000000018 8 0 2.175674571019022 2.620694305121185 0 0.3660254037836835 0.3660254037843618 0 0.8463478394954579 1.049252661251083 0 1.133568695335164 1.379096002824955 0 1.397993387422528 2.106123779590221 0 1.594298554901821 2.43398870142953 0 1.222281322170842 1.730827727073484 0 2.866473994024417 5.173294674392906 0 2.566116261876763 3.099031131618741 0 2.390146044726072 6.255879345474075 0 2.319648365383661 5.915870957616946 0 2.053442340193747 7.188563323860095 0 2.236122067793469 6.880886492316897 0 1.77558802222653 7.577597725772307 0 2.692052001243948 5.344980233513027 0 2.502962360085735 5.484003566189987 0 2.384391306497315 2.973826942851795 0 1.991769928988633 2.68452626109862 0 2.177007812977386 2.828879965804927 0 -7.88502199740783e-18 4.762612923406642e-17 0 0.4042130693408499 0.7783249284787429 0 1.735793038696006 2.697470059200093 0 2.777479066197011 4.974927912216821 0 2.260669413250306 5.572851933329076 0 2.137894056293433 6.512881337306003 0 1.500000000000014 8 0 -8.707671408719901e-18 0.5000000000020811 0 0.4271202383764144 1.269455361694086 0 0.8204294060440179 1.535943533548363 0 1.133641047742398 2.028623332732612 0 1.304419534380104 2.461721080556487 0 1.397302145045836 2.719615853788193 0 2.610154607531336 5.113579255362112 0 2.376510199308844 3.218168516600858 0 2.061011139888974 6.146708398406134 0 1.992835975757477 5.801106824482812 0 1.53194299236119 7.149470796180264 0 1.893698757357193 6.790822491326927 0 1.275771960214567 7.590728839476059 0 2.384349957738889 5.27881584180014 0 2.148614815441286 3.107971410967682 0 1.926366212913818 2.881379058117842 0 -9.201144074487417e-18 1.000000000004161 0 0.8327327024518827 1.996533871017158 0 1.081556778924341 2.281007953249587 0 1.609646033453765 3.007996924071879 0 2.566116260661603 4.90096886779607 0 1.920767036544452 5.472733236803677 0 1.792246850591834 6.398611666115711 0 1.000000000000011 8 0 2.111278871144856 5.306541885720788 0 0.4212989822266344 1.754742260901158 0 -9.075740940390509e-18 1.500000000006242 0 1.080859704338863 2.657589967659251 0 1.20914471190454 3.005197004772774 0 2.371377556423802 5.000410018039184 0 2.218168518612334 3.376510196786533 0 1.721215724743272 6.035973351348053 0 1.657720080512493 5.684362397370211 0 1.110996812834994 7.240861540898258 0 1.506089301187673 6.683281319231879 0 0.7552805667340664 7.547854044814924 0 2.139416424132102 5.079582290723013 0 1.888479268380097 3.128178868130545 0 0.4049639683907549 2.245226469543613 0 0.7448778595366662 2.458057614649796 0 1.356345124970204 3.346346088532222 0 2.376510197752761 4.781831482158207 0 1.99779003792581 3.343144816046804 0 1.59263378668863 5.341786622052952 0 1.851191524058532 5.128726125948043 0 1.427062617755728 6.279344985391685 0 1.205037903751635 6.934192706690146 0 0.5000000000000036 8 0 1.720201034885621 3.329697154591456 0 -8.723847486842153e-18 2.000000000008324 0 0.7675323221995701 2.980634741406243 0 1.012282765898738 3.277955213863183 0 2.163362611525895 4.836445278320177 0 2.099031132495104 3.566116260056976 0 1.38372851513176 5.9175222052815 0 1.331881169361276 5.560377636096171 0 0.7869506411135121 6.982061317329899 0 1.120490895559351 6.570632635303762 0 0.366025403784088 7.633974596215354 0 1.930535731513372 4.85293620901207 0 -8.169815543700326e-18 2.500000000010403 0 0.3792456170958299 2.735343346033534 0 1.597452483339245 3.586614856807881 0 1.023071855803292 3.571807937538037 0 2.21816851754659 4.623489801877067 0 1.871493261244608 3.565901373959403 0 1.278201102070682 5.202619210951832 0 1.519512388908809 4.999325612901271 0 1.08267405013416 6.128524075540048 0 0.3827753171774667 7.234451520394942 0 7.885021997416545e-18 8 0 1.695639397190979 4.81604504438625 0 0.3803733190756627 3.206390574585822 0 0.7156219892846621 3.377744925607423 0 1.313259145124566 3.682242779606931 0 1.994396157909888 4.63186277246741 0 2.025072087824969 3.777479066013926 0 1.064863489986951 5.73947821249737 0 1.085237598502628 5.417432322928848 0 0.4004997828622767 6.726752168699504 0 0.7567368686429091 6.425168923352996 0 8.245853333701392e-18 7.499999999997917 0 1.764572034904078 4.596914722438549 0 -8.194108816313605e-18 3.000000000012484 0 1.523047847112293 3.818605149552686 0 1.781434147728519 3.836668201616242 0 1.047601835407007 3.844796707223599 0 0.7279387257720933 3.730226240180212 0 2.09903113192712 4.433883738763593 0 1.215768125788327 4.862872577255558 0 0.9798156161848458 5.120745495261786 0 1.488888987221905 4.622505124135057 0 0.7546772093439469 5.946200841499516 0 8.62767874902044e-18 6.999999999996009 0 -8.619347794380744e-18 3.500000000014565 0 0.4001130571135216 3.587833120189953 0 1.338402260219989 3.947682968694632 0 1.887784861078653 4.38139259296015 0 2 4 0 0.7714266149093866 5.463941059837085 0 8.511971927564732e-18 6.499999999999304 0 0.3951286328442077 6.196842501745255 0 1.65828989004748 4.338908019487815 0 1.584691199149144 4.039816941037743 0 1.120909438918378 4.178890293943498 0 0.7482466132006864 4.073505035627893 0 0.4559950805180736 3.938475062182379 0 2.025072087760013 4.222520933701485 0 1.819827262420687 4.132973531776828 0 0.8671316620585364 4.783434572528609 0 1.156675631774847 4.538453001594753 0 0.6895583523257517 5.070706886345975 0 0.4032695577372823 5.719443214850783 0 1.403974995510409 4.259845204578569 0 -8.696123392608631e-18 4.000000000016473 0 0.3964051665867739 5.235413304090955 0 8.68734601689727e-18 6.000000000002772 0 0.7972647901349059 4.433988503640182 0 0.4036770065040667 4.300810914897356 0 0.4330127018892156 4.750000000011442 0 8.539471375790234e-18 5.50000000000624 0 -9.328081177587559e-18 4.500000000013178 0 9.328081177587559e-18 5.00000000000971 0 </DataArray>
      </Points>
      <Cells>
        <DataArray type="Int32" Name="connectivity" format="ascii">0 1 2 0 2 3 1 4 2 5 0 3 2 6 3 1 7 4 2 4 8 9 6 2 10 5 3 6 10 3 4 7 11 4 12 8 9 2 8 9 13 6 14 5 10 10 6 15 7 16 11 4 11 12 8 12 17 18 9 8 9 19 13 6 13 15 14 10 20 21 10 15 11 16 22 12 11 23 17 12 24 18 8 17 18 19 9 13 19 25 13 26 15 27 14 20 10 21 20 26 21 15 16 28 22 23 11 22 12 23 24 29 17 24 30 18 17 31 19 18 19 32 25 13 25 26 33 27 20 20 21 34 35 21 26 28 36 22 23 22 37 23 38 24 29 30 17 38 29 24 31 18 30 31 32 19 32 39 25 25 40 26 41 27 33 33 20 34 21 42 34 35 42 21 40 35 26 28 43 36 22 36 37 38 23 37 29 44 30 38 45 29 46 31 30 31 47 32 32 48 39 39 40 25 41 33 49 50 33 34 42 50 34 35 51 42 40 52 35 36 43 53 37 36 54 38 37 55 45 44 29 44 46 30 56 45 38 46 47 31 32 47 48 39 48 57 39 58 40 59 41 49 33 50 49 42 60 50 35 52 51 51 60 42 40 58 52 43 61 53 62 36 53 36 62 54 55 37 54 56 38 55 45 63 44 44 64 46 56 65 45 46 66 47 48 47 67 57 48 68 39 57 58 69 59 49 50 69 49 60 70 50 51 52 71 60 51 72 52 58 73 53 61 74 75 62 53 62 76 54 77 55 54 77 56 55 45 65 63 44 63 64 46 64 66 78 65 56 47 66 67 68 48 67 57 68 79 58 57 80 70 69 50 81 70 60 52 73 71 72 51 71 81 60 72 58 80 73 61 82 74 75 53 74 75 83 62 62 83 76 76 77 54 78 56 77 63 65 84 64 63 85 66 64 86 78 87 65 67 66 88 89 68 67 57 79 80 79 68 90 71 73 91 92 72 71 93 81 72 80 94 73 82 95 74 95 75 74 75 96 83 76 83 97 77 76 97 78 77 98 65 87 84 85 63 84 64 85 86 88 66 86 99 87 78 89 67 88 90 68 89 79 100 80 79 90 101 73 94 91 92 71 91 92 93 72 100 94 80 82 102 95 95 96 75 83 96 103 83 104 97 98 77 97 99 78 98 84 87 105 85 84 106 86 85 107 108 88 86 99 109 87 89 88 110 90 89 111 79 101 100 101 90 112 94 113 91 92 91 114 115 93 92 100 116 94 95 102 117 95 118 96 96 119 103 104 83 103 104 98 97 120 99 98 87 109 105 106 84 105 85 106 107 108 86 107 110 88 108 121 109 99 89 110 111 112 90 111 100 101 122 123 101 112 94 116 113 91 113 114 115 92 114 100 122 116 102 124 117 118 95 117 118 119 96 119 125 103 126 104 103 104 120 98 121 99 120 109 127 105 106 105 128 107 106 129 108 107 130 110 108 131 132 109 121 110 133 111 112 111 134 122 101 123 123 112 135 113 116 136 113 137 114 138 115 114 116 122 139 124 140 117 118 117 141 142 119 118 143 125 119 125 126 103 126 120 104 121 120 144 132 127 109 105 127 128 106 128 129 145 107 129 146 108 130 107 145 130 133 110 131 131 108 146 132 121 147 111 133 134 135 112 134 122 123 148 149 123 135 116 139 136 137 113 136 137 138 114 122 148 139 124 150 140 117 140 141 142 118 141 143 119 142 151 125 143 152 126 125 144 120 126 121 144 147 153 127 132 127 154 128 128 155 129 156 145 129 145 146 130 157 133 131 158 131 146 159 132 147 133 160 134 161 135 134 148 123 149 149 135 162 139 163 136 163 137 136 164 138 137 148 165 139 140 150 166 140 167 141 142 141 168 143 142 169 152 125 151 151 143 170 144 126 152 147 144 171 153 154 127 153 132 159 154 155 128 155 156 129 156 172 145 145 172 146 157 160 133 158 157 131 172 158 146 173 159 147 160 161 134 135 161 162 148 149 174 175 149 162 165 163 139 163 164 137 148 174 165 150 176 166 167 140 166 141 167 168 169 142 168 170 143 169 152 151 177 178 151 170 144 152 171 173 147 171 179 154 153 153 159 180 181 155 154 182 156 155 183 172 156 184 160 157 185 157 158 186 158 172 187 159 173 188 161 160 161 189 162 174 149 175 190 175 162 163 165 191 192 164 163 165 174 193 176 194 166 194 167 166 167 195 168 195 169 168 196 170 169 152 177 171 177 151 178 197 178 170 198 173 171 181 154 179 179 153 180 159 187 180 182 155 181 183 156 182 186 172 183 188 160 184 184 157 185 185 158 186 199 187 173 188 189 161 189 190 162 200 174 175 175 190 201 192 163 191 165 193 191 193 174 200 194 202 167 202 195 167 195 196 169 196 197 170 177 198 171 177 178 203 204 178 197 199 173 198 181 179 205 206 179 180 180 187 207 182 181 208 183 182 209 186 183 210 188 184 211 184 185 212 185 186 213 199 214 187 215 189 188 189 216 190 200 175 217 190 218 201 217 175 201 219 192 191 191 193 220 193 200 221 202 222 195 222 196 195 196 223 197 177 203 198 203 178 224 178 204 224 225 204 197 226 199 198 181 205 208 205 179 206 206 180 207 187 227 207 182 208 209 210 183 209 186 210 213 215 188 211 184 212 211 212 185 213 228 214 199 187 214 227 215 216 189 190 216 218 200 217 229 218 217 201 219 191 220 220 193 221 200 230 221 222 223 196 223 225 197 203 226 198 231 203 224 204 232 224 225 233 204 228 199 226 205 234 208 205 206 235 236 206 207 227 236 207 208 237 209 210 209 238 213 210 239 240 215 211 211 212 241 212 213 242 228 243 214 227 214 244 245 216 215 216 246 218 230 200 229 217 247 229 248 217 218 249 219 220 250 220 221 230 250 221 226 203 231 232 231 224 233 232 204 228 226 251 205 235 234 234 237 208 235 206 236 227 252 236 209 237 253 210 238 239 238 209 253 213 239 242 245 215 240 240 211 241 212 242 241 254 243 228 214 243 244 252 227 244 245 246 216 246 248 218 255 230 229 217 248 247 247 255 229 250 249 220 256 250 230 251 226 231 232 251 231 233 257 232 254 228 251 234 235 258 234 259 237 260 235 236 252 260 236 237 261 253 239 238 262 263 238 253 239 264 242 245 240 265 266 240 241 242 267 241 268 243 254 243 269 244 270 252 244 271 246 245 246 272 248 255 256 230 248 273 247 274 255 247 275 249 250 250 256 276 232 277 251 232 257 277 254 251 278 258 235 260 234 258 259 237 259 261 279 260 252 261 263 253 238 263 262 264 239 262 264 267 242 271 245 265 265 240 280 240 266 280 267 266 241 268 269 243 268 254 281 269 270 244 279 252 270 271 272 246 248 272 273 282 256 255 273 274 247 282 255 274 275 250 276 256 283 276 251 277 278 257 284 277 281 254 278 258 260 285 259 258 286 261 259 287 285 260 279 261 288 263 263 289 262 289 264 262 264 290 267 291 271 265 265 280 292 266 293 280 267 294 266 295 269 268 296 268 281 269 297 270 298 279 270 299 272 271 272 300 273 282 283 256 301 274 273 302 282 274 303 275 276 283 304 276 277 305 278 284 305 277 305 281 278 258 285 286 287 259 286 261 287 288 285 279 306 263 288 307 263 307 289 289 290 264 267 290 294 299 271 291 291 265 292 280 293 292 266 294 293 295 297 269 295 268 296 308 296 281 297 298 270 306 279 298 299 300 272 300 301 273 282 309 283 301 302 274 302 309 282 304 303 276 304 283 310 284 311 305 305 308 281 285 312 286 287 286 313 288 287 314 285 306 312 307 288 315 289 307 316 289 316 290 294 290 317 299 291 318 319 291 292 293 320 292 293 294 321 322 297 295 323 295 296 308 324 296 325 298 297 306 298 326 327 300 299 300 328 301 283 309 310 301 329 302 302 330 309 331 303 304 332 304 310 311 308 305 286 312 313 314 287 313 288 314 315 312 306 333 307 315 334 316 307 334 290 316 317 294 317 321 327 299 318 291 319 318 320 319 292 335 320 293 335 293 321 325 297 322 322 295 323 324 323 296 308 336 324 326 298 325 306 326 333 327 328 300 301 328 329 310 309 337 302 329 330 309 330 337 332 331 304 338 332 310 311 336 308 313 312 339 314 313 340 314 341 315 312 333 339 315 342 334 343 316 334 316 344 317 317 344 321 345 327 318 319 346 318 320 347 319 335 347 320 348 335 321 325 322 349 322 323 350 351 323 324 336 352 324 326 325 353 326 354 333 327 355 328 329 328 356 338 310 337 330 329 357 330 358 337 359 331 332 332 338 360 361 313 339 341 314 340 313 361 340 341 342 315 339 333 362 342 363 334 344 316 343 363 343 334 344 348 321 345 355 327 346 345 318 346 319 364 319 347 364 365 347 335 348 365 335 353 325 349 322 350 349 350 323 351 352 351 324 326 353 354 354 366 333 328 355 356 357 329 356 358 338 337 330 357 358 359 332 360 338 367 360 368 361 339 369 341 340 361 369 340 370 342 341 333 366 362 368 339 362 370 363 342 371 344 343 363 371 343 371 348 344 345 372 355 373 345 346 374 346 364 347 375 364 365 375 347 348 376 365 353 349 377 349 350 378 350 351 379 351 352 380 354 353 381 354 382 366 355 383 356 384 357 356 358 385 338 358 357 386 387 359 360 338 385 367 360 367 388 368 369 361 369 389 341 389 370 341 366 390 362 390 368 362 391 363 370 363 392 371 393 348 371 373 372 345 355 372 383 373 346 374 375 374 364 394 375 365 393 376 348 376 394 365 381 353 377 377 349 378 350 379 378 379 351 380 352 395 380 354 381 382 366 382 396 383 384 356 386 357 384 358 386 385 397 387 360 367 385 398 367 399 388 397 360 388 400 369 368 401 389 369 389 402 370 366 396 390 400 368 390 391 392 363 402 391 370 392 393 371 373 403 372 383 372 404 405 373 374 375 406 374 394 406 375 407 381 377 408 377 378 379 408 378 409 379 380 395 409 380 382 381 410 382 411 396 384 383 412 413 386 384 385 386 414 415 387 397 385 414 398 367 398 399 399 397 388 401 369 400 416 389 401 416 402 389 396 417 390 417 400 390 405 403 373 372 403 404 383 404 412 418 405 374 406 418 374 410 381 407 408 407 377 408 379 419 409 420 379 395 421 409 382 410 411 396 411 422 384 412 423 414 386 413 413 384 423 424 415 397 414 425 398 398 426 399 427 397 399 428 401 400 429 416 401 417 396 422 428 400 417 405 430 403 403 431 404 404 432 412 418 433 405 410 407 434 435 407 408 435 408 419 379 420 419 409 436 420 409 421 436 411 410 437 422 411 438 412 432 423 414 413 439 440 413 423 441 415 424 424 397 427 414 439 425 425 426 398 426 427 399 428 429 401 417 422 442 428 417 443 405 433 430 403 430 431 431 432 404 410 434 437 434 407 435 444 435 419 419 420 445 420 436 445 421 446 436 411 437 438 442 422 438 432 447 423 439 413 440 447 440 423 441 424 448 449 424 427 425 439 450 425 451 426 427 426 452 453 429 428 443 417 442 453 428 443 433 454 430 430 455 431 431 456 432 434 457 437 434 435 458 458 435 444 444 419 445 436 459 445 446 460 436 437 461 438 462 442 438 432 456 447 439 440 463 464 440 447 465 441 448 448 424 449 449 427 452 450 439 463 425 450 451 426 451 452 462 443 442 466 453 443 454 455 430 431 455 456 434 458 457 437 457 467 458 444 468 459 444 445 436 460 459 446 469 460 461 437 467 461 462 438 456 470 447 463 440 464 470 464 447 471 465 448 448 449 472 449 452 473 474 450 463 451 450 475 451 476 452 462 477 443 477 466 443 454 478 455 456 455 479 457 458 480 457 481 467 480 458 468 444 459 468 460 482 459 460 469 483 461 467 484 485 462 461 456 479 470 486 463 464 487 464 470 488 465 471 471 448 472 449 473 472 452 476 473 475 450 474 486 474 463 451 475 476 485 477 462 489 466 477 455 478 479 457 480 481 481 490 467 491 480 468 468 459 492 460 483 482 459 482 492 469 493 483 485 461 484 467 490 484 479 487 470 486 464 494 464 487 494 488 471 495 496 471 472 473 496 472 473 476 497 475 474 498 499 474 486 476 475 500 501 477 485 489 477 501 478 502 479 481 480 503 481 504 490 503 480 491 491 468 492 482 483 505 482 506 492 493 507 483 508 485 484 484 490 509 479 510 487 486 494 511 487 512 494 513 488 495 471 514 495 471 496 514 496 473 497 476 500 497 475 498 500 498 474 499 499 486 515 501 485 508 516 489 501 502 510 479 481 503 504 490 504 517 503 491 518 506 491 492 483 507 505 482 505 506 493 519 507 508 484 509 490 517 509 487 510 512 515 486 511 494 512 511 520 513 495 514 520 495 496 521 514 522 496 497 500 522 497 500 498 523 498 499 524 499 515 525 526 501 508 516 501 526 502 527 510 504 503 528 504 529 517 528 503 518 518 491 506 505 507 530 505 531 506 507 519 532 533 508 509 517 533 509 512 510 534 535 515 511 512 535 511 536 520 514 522 521 496 521 536 514 537 522 500 498 538 523 537 500 523 538 498 524 499 525 524 525 515 539 533 526 508 540 516 526 510 527 534 504 528 529 529 541 517 542 528 518 531 518 506 507 532 530 531 505 530 519 543 532 533 517 544 512 534 535 539 515 535 545 521 522 546 536 521 537 545 522 538 537 523 547 538 524 525 547 524 525 539 548 549 526 533 549 540 526 527 550 534 529 528 551 529 552 541 517 541 544 551 528 542 531 542 518 530 532 553 554 531 530 543 555 532 556 533 544 534 557 535 557 539 535 546 521 545 558 545 537 537 538 559 538 547 559 525 548 547 548 539 560 549 533 556 561 540 549 550 562 534 529 551 552 541 552 563 541 564 544 551 542 565 554 542 531 532 555 553 566 530 553 566 554 530 543 567 555 564 556 544 534 562 557 539 557 568 569 546 545 558 569 545 558 537 559 547 570 559 547 548 570 560 539 568 548 560 571 572 549 556 561 549 572 550 573 562 552 551 574 563 552 575 541 563 564 551 565 574 565 542 554 555 576 553 576 566 553 577 554 566 555 567 578 579 556 564 557 562 568 580 569 558 581 558 559 570 581 559 548 571 570 582 560 568 571 560 583 572 556 579 584 561 572 562 573 585 575 552 574 563 575 586 563 587 564 565 588 574 565 554 577 555 589 576 577 566 576 567 590 578 589 555 578 579 564 591 562 585 568 580 558 581 592 581 570 570 571 593 560 582 594 585 582 568 560 594 583 571 583 593 595 572 579 595 584 572 573 596 585 575 574 597 563 586 587 586 575 598 564 587 591 565 577 588 574 588 597 589 599 576 577 576 600 590 601 578 601 589 578 602 579 591 603 580 581 592 603 581 592 570 593 594 582 604 585 605 582 594 606 583 583 607 593 595 579 602 608 584 595 585 596 605 575 597 598 587 586 609 610 586 598 587 611 591 588 577 600 588 612 597 613 599 589 576 599 600 601 613 589 611 602 591 614 603 592 615 592 593 582 605 604 616 594 604 616 606 594 606 607 583 607 615 593 617 595 602 608 595 617 596 618 605 597 619 598 609 586 610 587 609 611 619 610 598 612 588 600 612 619 597 613 620 599 599 621 600 602 611 622 614 592 615 605 623 604 623 616 604 616 624 606 606 625 607 607 626 615 617 602 622 627 608 617 618 628 605 609 610 629 611 609 630 610 619 631 621 612 600 632 619 612 599 620 621 611 633 622 634 614 615 605 628 623 633 616 623 633 624 616 606 624 625 607 625 626 626 634 615 628 617 622 628 627 617 618 627 628 630 609 629 629 610 631 611 630 633 619 635 631 621 632 612 632 635 619 620 636 621 633 623 622 623 628 622 633 630 624 625 624 637 625 638 626 638 634 626 637 630 629 639 629 631 635 639 631 636 632 621 632 640 635 624 630 637 638 625 637 641 634 638 639 637 629 642 639 635 636 640 632 640 642 635 639 638 637 639 641 638 642 641 639 </DataArray>
        <DataArray type="Int32" Name="offsets" format="ascii">3 6 9 12 15 18 21 24 27 30 33 36 39 42 45 48 51 54 57 60 63 66 69 72 75 78 81 84 87 90 93 96 99 102 105 108 111 114 117 120 123 126 129 132 135 138 141 144 147 150 153 156 159 162 165 168 171 174 177 180 183 186 189 192 195 198 201 204 207 210 213 216 219 222 225 228 231 234 237 240 243 246 249 252 255 258 261 264 267 270 273 276 279 282 285 288 291 294 297 300 303 306 309 312 315 318 321 324 327 330 333 336 339 342 345 348 351 354 357 360 363 366 369 372 375 378 381 384 387 390 393 396 399 402 405 408 411 414 417 420 423 426 429 432 435 438 441 444 447 450 453 456 459 462 465 468 471 474 477 480 483 486 489 492 495 498 501 504 507 510 513 516 519 522 525 528 531 534 537 540 543 546 549 552 555 558 561 564 567 570 573 576 579 582 585 588 591 594 597 600 603 606 609 612 615 618 621 624 627 630 633 636 639 642 645 648 651 654 657 660 663 666 669 672 675 678 681 684 687 690 693 696 699 702 705 708 711 714 717 720 723 726 729 732 735 738 741 744 747 750 753 756 759 762 765 768 771 774 777 780 783 786 789 792 795 798 801 804 807 810 813 816 819 822 825 828 831 834 837 840 843 846 849 852 855 858 861 864 867 870 873 876 879 882 885 888 891 894 897 900 903 906 909 912 915 918 921 924 927 930 933 936 939 942 945 948 951 954 957 960 963 966 969 972 975 978 981 984 987 990 993 996 999 1002 1005 1008 1011 1014 1017 1020 1023 1026 1029 1032 1035 1038 1041 1044 1047 1050 1053 1056 1059 1062 1065 1068 1071 1074 1077 1080 1083 1086 1089 1092 1095 1098 1101 1104 1107 1110 1113 1116 1119 1122 1125 1128 1131 1134 1137 1140 1143 1146 1149 1152 1155 1158 1161 1164 1167 1170 1173 1176 1179 1182 1185 1188 1191 1194 1197 1200 1203 1206 1209 1212 1215 1218 1221 1224 1227 1230 1233 1236 1239 1242 1245 1248 1251 1254 1257 1260 1263 1266 1269 1272 1275 1278 1281 1284 1287 1290 1293 1296 1299 1302 1305 1308 1311 1314 1317 1320 1323 1326 1329 1332 1335 1338 1341 1344 1347 1350 1353 1356 1359 1362 1365 1368 1371 1374 1377 1380 1383 1386 1389 1392 1395 1398 1401 1404 1407 1410 1413 1416 1419 1422 1425 1428 1431 1434 1437 1440 1443 1446 1449 1452 1455 1458 1461 1464 1467 1470 1473 1476 1479 1482 1485 1488 1491 1494 1497 1500 1503 1506 1509 1512 1515 1518 1521 1524 1527 1530 1533 1536 1539 1542 1545 1548 1551 1554 1557 1560 1563 1566 1569 1572 1575 1578 1581 1584 1587 1590 1593 1596 1599 1602 1605 1608 1611 1614 1617 1620 1623 1626 1629 1632 1635 1638 1641 1644 1647 1650 1653 1656 1659 1662 1665 1668 1671 1674 1677 1680 1683 1686 1689 1692 1695 1698 1701 1704 1707 1710 1713 1716 1719 1722 1725 1728 1731 1734 1737 1740 1743 1746 1749 1752 1755 1758 1761 1764 1767 1770 1773 1776 1779 1782 1785 1788 1791 1794 1797 1800 1803 1806 1809 1812 1815 1818 1821 1824 1827 1830 1833 1836 1839 1842 1845 1848 1851 1854 1857 1860 1863 1866 1869 1872 1875 1878 1881 1884 1887 1890 1893 1896 1899 1902 1905 1908 1911 1914 1917 1920 1923 1926 1929 1932 1935 1938 1941 1944 1947 1950 1953 1956 1959 1962 1965 1968 1971 1974 1977 1980 1983 1986 1989 1992 1995 1998 2001 2004 2007 2010 2013 2016 2019 2022 2025 2028 2031 2034 2037 2040 2043 2046 2049 2052 2055 2058 2061 2064 2067 2070 2073 2076 2079 2082 2085 2088 2091 2094 2097 2100 2103 2106 2109 2112 2115 2118 2121 2124 2127 2130 2133 2136 2139 2142 2145 2148 2151 2154 2157 2160 2163 2166 2169 2172 2175 2178 2181 2184 2187 2190 2193 2196 2199 2202 2205 2208 2211 2214 2217 2220 2223 2226 2229 2232 2235 2238 2241 2244 2247 2250 2253 2256 2259 2262 2265 2268 2271 2274 2277 2280 2283 2286 2289 2292 2295 2298 2301 2304 2307 2310 2313 2316 2319 2322 2325 2328 2331 2334 2337 2340 2343 2346 2349 2352 2355 2358 2361 2364 2367 2370 2373 2376 2379 2382 2385 2388 2391 2394 2397 2400 2403 2406 2409 2412 2415 2418 2421 2424 2427 2430 2433 2436 2439 2442 2445 2448 2451 2454 2457 2460 2463 2466 2469 2472 2475 2478 2481 2484 2487 2490 2493 2496 2499 2502 2505 2508 2511 2514 2517 2520 2523 2526 2529 2532 2535 2538 2541 2544 2547 2550 2553 2556 2559 2562 2565 2568 2571 2574 2577 2580 2583 2586 2589 2592 2595 2598 2601 2604 2607 2610 2613 2616 2619 2622 2625 2628 2631 2634 2637 2640 2643 2646 2649 2652 2655 2658 2661 2664 2667 2670 2673 2676 2679 2682 2685 2688 2691 2694 2697 2700 2703 2706 2709 2712 2715 2718 2721 2724 2727 2730 2733 2736 2739 2742 2745 2748 2751 2754 2757 2760 2763 2766 2769 2772 2775 2778 2781 2784 2787 2790 2793 2796 2799 2802 2805 2808 2811 2814 2817 2820 2823 2826 2829 2832 2835 2838 2841 2844 2847 2850 2853 2856 2859 2862 2865 2868 2871 2874 2877 2880 2883 2886 2889 2892 2895 2898 2901 2904 2907 2910 2913 2916 2919 2922 2925 2928 2931 2934 2937 2940 2943 2946 2949 2952 2955 2958 2961 2964 2967 2970 2973 2976 2979 2982 2985 2988 2991 2994 2997 3000 3003 3006 3009 3012 3015 3018 3021 3024 3027 3030 3033 3036 3039 3042 3045 3048 3051 3054 3057 3060 3063 3066 3069 3072 3075 3078 3081 3084 3087 3090 3093 3096 3099 3102 3105 3108 3111 3114 3117 3120 3123 3126 3129 3132 3135 3138 3141 3144 3147 3150 3153 3156 3159 3162 3165 3168 3171 3174 3177 3180 3183 3186 3189 3192 3195 3198 3201 3204 3207 3210 3213 3216 3219 3222 3225 3228 3231 3234 3237 3240 3243 3246 3249 3252 3255 3258 3261 3264 3267 3270 3273 3276 3279 3282 3285 3288 3291 3294 3297 3300 3303 3306 3309 3312 3315 3318 3321 3324 3327 3330 3333 3336 3339 3342 3345 3348 3351 3354 3357 3360 3363 3366 3369 3372 3375 3378 3381 3384 3387 3390 3393 3396 3399 3402 3405 3408 3411 3414 3417 3420 3423 3426 3429 3432 3435 3438 3441 3444 3447 3450 3453 3456 3459 3462 3465 3468 3471 3474 3477 3480 3483 3486 3489 3492 3495 3498 3501 3504 3507 3510 3513 3516 3519 3522 3525 3528 3531 3534 3537 3540 3543 3546 3549 3552 3555 3558 </DataArray>
        <DataArray type="Int8" Name="types" format="ascii">69 69 69 69 69 69 69 69 69 69 69 69 69 69 69 69 69 69 69 69 69 69 69 69 69 69 69 69 69 69 69 69 69 69 69 69 69 69 69 69 69 69 69 69 69 69 69 69 69 69 69 69 69 69 69 69 69 69 69 69 69 69 69 69 69 69 69 69 69 69 69 69 69 69 69 69 69 69 69 69 69 69 69 69 69 69 69 69 69 69 69 69 69 69 69 69 69 69 69 69 69 69 69 69 69 69 69 69 69 69 69 69 69 69 69 69 69 69 69 69 69 69 69 69 69 69 69 69 69 69 69 69 69 69 69 69 69 69 69 69 69 69 69 69 69 69 69 69 69 69 69 69 69 69 69 69 69 69 69 69 69 69 69 69 69 69 69 69 69 69 69 69 69 69 69 69 69 69 69 69 69 69 69 69 69 69 69 69 69 69 69 69 69 69 69 69 69 69 69 69 69 69 69 69 69 69 69 69 69 69 69 69 69 69 69 69 69 69 69 69 69 69 69 69 69 69 69 69 69 69 69 69 69 69 69 69 69 69 69 69 69 69 69 69 69 69 69 69 69 69 69 69 69 69 69 69 69 69 69 69 69 69 69 69 69 69 69 69 69 69 69 69 69 69 69 69 69 69 69 69 69 69 69 69 69 69 69 69 69 69 69 69 69 69 69 69 69 69 69 69 69 69 69 69 69 69 69 69 69 69 69 69 69 69 69 69 69 69 69 69 69 69 69 69 69 69 69 69 69 69 69 69 69 69 69 69 69 69 69 69 69 69 69 69 69 69 69 69 69 69 69 69 69 69 69 69 69 69 69 69 69 69 69 69 69 69 69 69 69 69 69 69 69 69 69 69 69 69 69 69 69 69 69 69 69 69 69 69 69 69 69 69 69 69 69 69 69 69 69 69 69 69 69 69 69 69 69 69 69 69 69 69 69 69 69 69 69 69 69 69 69 69 69 69 69 69 69 69 69 69 69 69 69 69 69 69 69 69 69 69 69 69 69 69 69 69 69 69 69 69 69 69 69 69 69 69 69 69 69 69 69 69 69 69 69 69 69 69 69 69 69 69 69 69 69 69 69 69 69 69 69 69 69 69 69 69 69 69 69 69 69 69 69 69 69 69 69 69 69 69 69 69 69 69 69 69 69 69 69 69 69 69 69 69 69 69 69 69 69 69 69 69 69 69 69 69 69 69 69 69 69 69 69 69 69 69 69 69 69 69 69 69 69 69 69 69 69 69 69 69 69 69 69 69 69 69 69 69 69 69 69 69 69 69 69 69 69 69 69 69 69 69 69 69 69 69 69 69 69 69 69 69 69 69 69 69 69 69 69 69 69 69 69 69 69 69 69 69 69 69 69 69 69 69 69 69 69 69 69 69 69 69 69 69 69 69 69 69 69 69 69 69 69 69 69 69 69 69 69 69 69 69 69 69 69 69 69 69 69 69 69 69 69 69 69 69 69 69 69 69 69 69 69 69 69 69 69 69 69 69 69 69 69 69 69 69 69 69 69 69 69 69 69 69 69 69 69 69 69 69 69 69 69 69 69 69 69 69 69 69 69 69 69 69 69 69 69 69 69 69 69 69 69 69 69 69 69 69 69 69 69 69 69 69 69 69 69 69 69 69 69 69 69 69 69 69 69 69 69 69 69 69 69 69 69 69 69 69 69 69 69 69 69 69 69 69 69 69 69 69 69 69 69 69 69 69 69 69 69 69 69 69 69 69 69 69 69 69 69 69 69 69 69 69 69 69 69 69 69 69 69 69 69 69 69 69 69 69 69 69 69 69 69 69 69 69 69 69 69 69 69 69 69 69 69 69 69 69 69 69 69 69 69 69 69 69 69 69 69 69 69 69 69 69 69 69 69 69 69 69 69 69 69 69 69 69 69 69 69 69 69 69 69 69 69 69 69 69 69 69 69 69 69 69 69 69 69 69 69 69 69 69 69 69 69 69 69 69 69 69 69 69 69 69 69 69 69 69 69 69 69 69 69 69 69 69 69 69 69 69 69 69 69 69 69 69 69 69 69 69 69 69 69 69 69 69 69 69 69 69 69 69 69 69 69 69 69 69 69 69 69 69 69 69 69 69 69 69 69 69 69 69 69 69 69 69 69 69 69 69 69 69 69 69 69 69 69 69 69 69 69 69 69 69 69 69 69 69 69 69 69 69 69 69 69 69 69 69 69 69 69 69 69 69 69 69 69 69 69 69 69 69 69 69 69 69 69 69 69 69 69 69 69 69 69 69 69 69 69 69 69 69 69 69 69 69 69 69 69 69 69 69 69 69 69 69 69 69 69 69 69 69 69 69 69 69 69 69 69 69 69 69 69 69 69 69 69 69 69 69 69 69 69 69 69 69 69 69 69 69 69 69 69 69 69 69 69 69 69 69 69 69 69 69 69 69 69 69 69 69 69 69 69 69 69 69 69 69 69 69 69 69 69 69 69 69 69 69 69 69 69 69 69 69 69 69 69 69 69 69 69 69 69 69 69 69 69 69 69 69 69 69 69 69 69 69 69 69 69 69 69 69 69 69 69 69 69 69 69 69 69 69 69 69 69 69 69 69 69 69 69 69 69 69 69 69 69 69 69 69 69 69 69 69 69 69 69 69 69 69 69 69 69 69 69 69 69 69 69 69 69 69 69 69 69 69 69 69 69 69 69 69 69 69 69 69 </DataArray>
      </Cells>
      <CellData>
        <DataArray type="UInt8" Name="vtkGhostType" format="ascii" RangeMin="0" RangeMax="1">0 0 0 0 0 0 0 0 0 0 0 0 0 0 0 0 0 0 0 0 0 0 0 0 0 0 0 0 0 0 0 0 0 0 0 0 0 0 0 0 0 0 0 0 0 0 0 0 0 0 0 0 0 0 0 0 0 0 0 0 0 0 0 0 0 0 0 0 0 0 0 0 0 0 0 0 0 0 0 0 0 0 0 0 0 0 0 0 0 0 0 0 0 0 0 0 0 0 0 0 0 0 0 0 0 0 0 0 0 0 0 0 0 0 0 0 0 0 0 0 0 0 0 0 0 0 0 0 0 0 0 0 0 0 0 0 0 0 0 0 0 0 0 0 0 0 0 0 0 0 0 0 0 0 0 0 0 0 0 0 0 0 0 0 0 0 0 0 0 0 0 0 0 0 0 0 0 0 0 0 0 0 0 0 0 0 0 0 0 0 0 0 0 0 0 0 0 0 0 0 0 0 0 0 0 0 0 0 0 0 0 0 0 0 0 0 0 0 0 0 0 0 0 0 0 0 0 0 0 0 0 0 0 0 0 0 0 0 0 0 0 0 0 0 0 0 0 0 0 0 0 0 0 0 0 0 0 0 0 0 0 0 0 0 0 0 0 0 0 0 0 0 0 0 0 0 0 0 0 0 0 0 0 0 0 0 0 0 0 0 0 0 0 0 0 0 0 0 0 0 0 0 0 0 0 0 0 0 0 0 0 0 0 0 0 0 0 0 0 0 0 0 0 0 0 0 0 0 0 0 0 0 0 0 0 0 0 0 0 0 0 0 0 0 0 0 0 0 0 0 0 0 0 0 0 0 0 0 0 0 0 0 0 0 0 0 0 0 0 0 0 0 0 0 0 0 0 0 0 0 0 0 0 0 0 0 0 0 0 0 0 0 0 0 0 0 0 0 0 0 0 0 0 0 0 0 0 0 0 0 0 0 0 0 0 0 0 0 0 0 0 0 0 0 0 0 0 0 0 0 0 0 0 0 0 0 0 0 0 0 0 0 0 0 0 0 0 0 0 0 0 0 0 0 0 0 0 0 0 0 0 0 0 0 0 0 0 0 0 0 0 0 0 0 0 0 0 0 0 0 0 0 0 0 0 0 0 0 0 0 0 0 0 0 0 0 0 0 0 0 0 0 0 0 0 0 0 0 0 0 0 0 0 0 0 0 0 0 0 0 0 0 0 0 0 0 0 0 0 0 0 0 0 0 0 0 0 0 0 0 0 0 0 0 0 0 0 0 0 0 0 0 0 0 0 0 0 0 0 0 0 0 0 0 0 0 0 0 0 0 0 0 0 0 0 0 0 0 0 0 0 0 0 0 0 0 0 0 0 0 0 0 0 0 0 0 0 0 0 0 0 0 0 0 0 0 0 0 0 0 0 0 0 0 0 0 0 0 0 0 0 0 0 0 0 0 0 0 0 0 0 0 0 0 0 0 0 0 0 0 0 0 0 0 0 0 0 0 0 0 0 0 0 0 0 0 0 0 0 0 0 0 0 0 0 0 0 0 0 0 0 0 0 0 0 0 0 0 0 0 0 0 0 0 0 0 0 0 0 0 0 0 0 0 0 0 0 0 0 0 0 0 0 0 0 0 0 0 0 0 0 0 0 0 0 0 0 0 0 0 0 0 0 0 0 0 0 0 0 0 0 0 0 0 0 0 0 0 0 0 0 0 0 0 0 0 0 0 0 0 0 0 0 0 0 0 0 0 0 0 0 0 0 0 0 0 0 0 0 0 0 0 0 0 0 0 0 0 0 0 0 0 0 0 0 0 0 0 0 0 0 0 0 0 0 0 0 0 0 0 0 0 0 0 0 0 0 0 0 0 0 0 0 0 0 0 0 0 0 0 0 0 0 0 0 0 0 0 0 0 0 0 0 0 0 0 0 0 0 0 0 0 0 0 0 0 0 0 0 0 0 0 0 0 0 0 0 0 0 0 0 0 0 0 0 0 0 0 0 0 0 0 0 0 0 0 0 0 0 0 0 0 0 0 0 0 0 0 0 0 0 0 0 0 0 0 0 0 0 0 0 0 0 0 0 0 0 0 0 0 0 0 0 0 0 0 0 0 0 0 0 0 0 0 0 0 0 0 0 0 0 0 0 0 0 0 0 0 0 0 0 0 0 0 0 0 0 0 0 0 0 0 0 0 0 0 0 0 0 0 0 0 0 0 0 0 0 0 0 0 0 0 0 0 0 0 0 0 0 0 0 0 0 0 0 0 0 0 0 0 0 0 0 0 0 0 0 0 0 0 0 0 0 0 0 0 0 0 0 0 0 0 0 0 0 0 0 0 0 0 0 0 0 0 0 0 0 0 0 0 0 0 0 0 0 0 0 0 0 0 0 0 0 0 0 0 0 0 0 0 0 0 0 0 0 0 0 0 0 0 0 0 0 0 0 0 0 0 0 0 0 0 0 0 0 0 0 0 0 0 0 0 0 0 0 0 0 0 0 0 0 0 0 0 0 0 0 0 0 0 0 0 0 0 0 0 0 0 0 0 0 0 0 0 0 0 0 0 0 0 0 0 0 0 0 0 0 0 0 0 0 0 0 0 0 0 0 0 0 0 0 0 0 0 0 0 0 0 0 0 0 0 0 0 0 0 0 0 0 0 0 0 0 0 0 0 0 0 0 0 0 0 0 0 0 0 0 0 0 0 0 0 0 0 0 0 </DataArray>
        <DataArray type="Int64" IdType="1" Name="vtkOriginalCellIds" format="ascii" RangeMin="0" RangeMax="1185">0 1 2 3 4 5 6 7 8 9 10 11 12 13 14 15 16 17 18 19 20 21 22 23 24 25 26 27 28 29 30 31 32 33 34 35 36 37 38 39 40 41 42 43 44 45 46 47 48 49 50 51 52 53 54 55 56 57 58 59 60 61 62 63 64 65 66 67 68 69 70 71 72 73 74 75 76 77 78 79 80 81 82 83 84 85 86 87 88 89 90 91 92 93 94 95 96 97 98 99 100 101 102 103 104 105 106 107 108 109 110 111 112 113 114 115 116 117 118 119 120 121 122 123 124 125 126 127 128 129 130 131 132 133 134 135 136 137 138 139 140 141 142 143 144 145 146 147 148 149 150 151 152 153 154 155 156 157 158 159 160 161 162 163 164 165 166 167 168 169 170 171 172 173 174 175 176 177 178 179 180 181 182 183 184 185 186 187 188 189 190 191 192 193 194 195 196 197 198 199 200 201 202 203 204 205 206 207 208 209 210 211 212 213 214 215 216 217 218 219 220 221 222 223 224 225 226 227 228 229 230 231 232 233 234 235 236 237 238 239 240 241 242 243 244 245 246 247 248 249 250 251 252 253 254 255 256 257 258 259 260 261 262 263 264 265 266 267 268 269 270 271 272 273 274 275 276 277 278 279 280 281 282 283 284 285 286 287 288 289 290 291 292 293 294 295 296 297 298 299 300 301 302 303 304 305 306 307 308 309 310 311 312 313 314 315 316 317 318 319 320 321 322 323 324 325 326 327 328 329 330 331 332 333 334 335 336 337 338 339 340 341 342 343 344 345 346 347 348 349 350 351 352 353 354 355 356 357 358 359 360 361 362 363 364 365 366 367 368 369 370 371 372 373 374 375 376 377 378 379 380 381 382 383 384 385 386 387 388 389 390 391 392 393 394 395 396 397 398 399 400 401 402 403 404 405 406 407 408 409 410 411 412 413 414 415 416 417 418 419 420 421 422 423 424 425 426 427 428 429 430 431 432 433 434 435 436 437 438 439 440 441 442 443 444 445 446 447 448 449 450 451 452 453 454 455 456 457 458 459 460 461 462 463 464 465 466 467 468 469 470 471 472 473 474 475 476 477 478 479 480 481 482 483 484 485 486 487 488 489 490 491 492 493 494 495 496 497 498 499 500 501 502 503 504 505 506 507 508 509 510 511 512 513 514 515 516 517 518 519 520 521 522 523 524 525 526 527 528 529 530 531 532 533 534 535 536 537 538 539 540 541 542 543 544 545 546 547 548 549 550 551 552 553 554 555 556 557 558 559 560 561 562 563 564 565 566 567 568 569 570 571 572 573 574 575 576 577 578 579 580 581 582 583 584 585 586 587 588 589 590 591 592 593 594 595 596 597 598 599 600 601 602 603 604 605 606 607 608 609 610 611 612 613 614 615 616 617 618 619 620 621 622 623 624 625 626 627 628 629 630 631 632 633 634 635 636 637 638 639 640 641 642 643 644 645 646 647 648 649 650 651 652 653 654 655 656 657 658 659 660 661 662 663 664 665 666 667 668 669 670 671 672 673 674 675 676 677 678 679 680 681 682 683 684 685 686 687 688 689 690 691 692 693 694 695 696 697 698 699 700 701 702 703 704 705 706 707 708 709 710 711 712 713 714 715 716 717 718 719 720 721 722 723 724 725 726 727 728 729 730 731 732 733 734 735 736 737 738 739 740 741 742 743 744 745 746 747 748 749 750 751 752 753 754 755 756 757 758 759 760 761 762 763 764 765 766 767 768 769 770 771 772 773 774 775 776 777 778 779 780 781 782 783 784 785 786 787 788 789 790 791 792 793 794 795 796 797 798 799 800 801 802 803 804 805 806 807 808 809 810 811 812 813 814 815 816 817 818 819 820 821 822 823 824 825 826 827 828 829 830 831 832 833 834 835 836 837 838 839 840 841 842 843 844 845 846 847 848 849 850 851 852 853 854 855 856 857 858 859 860 861 862 863 864 865 866 867 868 869 870 871 872 873 874 875 876 877 878 879 880 881 882 883 884 885 886 887 888 889 890 891 892 893 894 895 896 897 898 899 900 901 902 903 904 905 906 907 908 909 910 911 912 913 914 915 916 917 918 919 920 921 922 923 924 925 926 927 928 929 930 931 932 933 934 935 936 937 938 939 940 941 942 943 944 945 946 947 948 949 950 951 952 953 954 955 956 957 958 959 960 961 962 963 964 965 966 967 968 969 970 971 972 973 974 975 976 977 978 979 980 981 982 983 984 985 986 987 988 989 990 991 992 993 994 995 996 997 998 999 1000 1001 1002 1003 1004 1005 1006 1007 1008 1009 1010 1011 1012 1013 1014 1015 1016 1017 1018 1019 1020 1021 1022 1023 1024 1025 1026 1027 1028 1029 1030 1031 1032 1033 1034 1035 1036 1037 1038 1039 1040 1041 1042 1043 1044 1045 1046 1047 1048 1049 1050 1051 1052 1053 1054 1055 1056 1057 1058 1059 1060 1061 1062 1063 1064 1065 1066 1067 1068 1069 1070 1071 1072 1073 1074 1075 1076 1077 1078 1079 1080 1081 1082 1083 1084 1085 1086 1087 1088 1089 1090 1091 1092 1093 1094 1095 1096 1097 1098 1099 1100 1101 1102 1103 1104 1105 1106 1107 1108 1109 1110 1111 1112 1113 1114 1115 1116 1117 1118 1119 1120 1121 1122 1123 1124 1125 1126 1127 1128 1129 1130 1131 1132 1133 1134 1135 1136 1137 1138 1139 1140 1141 1142 1143 1144 1145 1146 1147 1148 1149 1150 1151 1152 1153 1154 1155 1156 1157 1158 1159 1160 1161 1162 1163 1164 1165 1166 1167 1168 1169 1170 1171 1172 1173 1174 1175 1176 1177 1178 1179 1180 1181 1182 1183 1184 1185 </DataArray>
      </CellData>
      <PointData Vectors="U">
        <DataArray type="Int64" IdType="1" Name="vtkOriginalPointIds" format="ascii" RangeMin="0" RangeMax="642">0 1 2 3 4 5 6 7 8 9 10 11 12 13 14 15 16 17 18 19 20 21 22 23 24 25 26 27 28 29 30 31 32 33 34 35 36 37 38 39 40 41 42 43 44 45 46 47 48 49 50 51 52 53 54 55 56 57 58 59 60 61 62 63 64 65 66 67 68 69 70 71 72 73 74 75 76 77 78 79 80 81 82 83 84 85 86 87 88 89 90 91 92 93 94 95 96 97 98 99 100 101 102 103 104 105 106 107 108 109 110 111 112 113 114 115 116 117 118 119 120 121 122 123 124 125 126 127 128 129 130 131 132 133 134 135 136 137 138 139 140 141 142 143 144 145 146 147 148 149 150 151 152 153 154 155 156 157 158 159 160 161 162 163 164 165 166 167 168 169 170 171 172 173 174 175 176 177 178 179 180 181 182 183 184 185 186 187 188 189 190 191 192 193 194 195 196 197 198 199 200 201 202 203 204 205 206 207 208 209 210 211 212 213 214 215 216 217 218 219 220 221 222 223 224 225 226 227 228 229 230 231 232 233 234 235 236 237 238 239 240 241 242 243 244 245 246 247 248 249 250 251 252 253 254 255 256 257 258 259 260 261 262 263 264 265 266 267 268 269 270 271 272 273 274 275 276 277 278 279 280 281 282 283 284 285 286 287 288 289 290 291 292 293 294 295 296 297 298 299 300 301 302 303 304 305 306 307 308 309 310 311 312 313 314 315 316 317 318 319 320 321 322 323 324 325 326 327 328 329 330 331 332 333 334 335 336 337 338 339 340 341 342 343 344 345 346 347 348 349 350 351 352 353 354 355 356 357 358 359 360 361 362 363 364 365 366 367 368 369 370 371 372 373 374 375 376 377 378 379 380 381 382 383 384 385 386 387 388 389 390 391 392 393 394 395 396 397 398 399 400 401 402 403 404 405 406 407 408 409 410 411 412 413 414 415 416 417 418 419 420 421 422 423 424 425 426 427 428 429 430 431 432 433 434 435 436 437 438 439 440 441 442 443 444 445 446 447 448 449 450 451 452 453 454 455 456 457 458 459 460 461 462 463 464 465 466 467 468 469 470 471 472 473 474 475 476 477 478 479 480 481 482 483 484 485 486 487 488 489 490 491 492 493 494 495 496 497 498 499 500 501 502 503 504 505 506 507 508 509 510 511 512 513 514 515 516 517 518 519 520 521 522 523 524 525 526 527 528 529 530 531 532 533 534 535 536 537 538 539 540 541 542 543 544 545 546 547 548 549 550 551 552 553 554 555 556 557 558 559 560 561 562 563 564 565 566 567 568 569 570 571 572 573 574 575 576 577 578 579 580 581 582 583 584 585 586 587 588 589 590 591 592 593 594 595 596 597 598 599 600 601 602 603 604 605 606 607 608 609 610 611 612 613 614 615 616 617 618 619 620 621 622 623 624 625 626 627 628 629 630 631 632 633 634 635 636 637 638 639 640 641 642 </DataArray>
        <DataArray type="UInt8" Name="vtkGhostType" format="ascii" RangeMin="0" RangeMax="0">0 0 0 0 0 0 0 0 0 0 0 0 0 0 0 0 0 0 0 0 0 0 0 0 0 0 0 0 0 0 0 0 0 0 0 0 0 0 0 0 0 0 0 0 0 0 0 0 0 0 0 0 0 0 0 0 0 0 0 0 0 0 0 0 0 0 0 0 0 0 0 0 0 0 0 0 0 0 0 0 0 0 0 0 0 0 0 0 0 0 0 0 0 0 0 0 0 0 0 0 0 0 0 0 0 0 0 0 0 0 0 0 0 0 0 0 0 0 0 0 0 0 0 0 0 0 0 0 0 0 0 0 0 0 0 0 0 0 0 0 0 0 0 0 0 0 0 0 0 0 0 0 0 0 0 0 0 0 0 0 0 0 0 0 0 0 0 0 0 0 0 0 0 0 0 0 0 0 0 0 0 0 0 0 0 0 0 0 0 0 0 0 0 0 0 0 0 0 0 0 0 0 0 0 0 0 0 0 0 0 0 0 0 0 0 0 0 0 0 0 0 0 0 0 0 0 0 0 0 0 0 0 0 0 0 0 0 0 0 0 0 0 0 0 0 0 0 0 0 0 0 0 0 0 0 0 0 0 0 0 0 0 0 0 0 0 0 0 0 0 0 0 0 0 0 0 0 0 0 0 0 0 0 0 0 0 0 0 0 0 0 0 0 0 0 0 0 0 0 0 0 0 0 0 0 0 0 0 0 0 0 0 0 0 0 0 0 0 0 0 0 0 0 0 0 0 0 0 0 0 0 0 0 0 0 0 0 0 0 0 0 0 0 0 0 0 0 0 0 0 0 0 0 0 0 0 0 0 0 0 0 0 0 0 0 0 0 0 0 0 0 0 0 0 0 0 0 0 0 0 0 0 0 0 0 0 0 0 0 0 0 0 0 0 0 0 0 0 0 0 0 0 0 0 0 0 0 0 0 0 0 0 0 0 0 0 0 0 0 0 0 0 0 0 0 0 0 0 0 0 0 0 0 0 0 0 0 0 0 0 0 0 0 0 0 0 0 0 0 0 0 0 0 0 0 0 0 0 0 0 0 0 0 0 0 0 0 0 0 0 0 0 0 0 0 0 0 0 0 0 0 0 0 0 0 0 0 0 0 0 0 0 0 0 0 0 0 0 0 0 0 0 0 0 0 0 0 0 0 0 0 0 0 0 0 0 0 0 0 0 0 0 0 0 0 0 0 0 0 0 0 0 0 0 0 0 0 0 0 0 0 0 0 0 0 0 0 0 0 0 0 0 0 0 0 0 0 0 0 0 0 0 0 0 0 0 0 0 0 0 0 0 0 0 0 0 0 0 0 0 0 0 0 0 0 0 0 0 0 0 0 0 0 0 0 0 0 0 0 0 0 0 0 0 0 0 0 0 0 0 0 0 0 0 0 0 0 0 0 0 0 0 0 0 0 0 0 0 0 0 0 0 0 0 0 0 0 0 0 0 0 0 0 </DataArray>
        <DataArray type="Float64" Name="U" format="ascii" NumberOfComponents="4">1 3 0 6.2857 1 3 0 6.2857 1 3 0 6.2857 1 3 0 6.2857 1 3 0 6.2857 1 3 0 6.2857 1 3 0 6.2857 1 3 0 6.2857 1 3 0 6.2857 1 3 0 6.2857 1 3 0 6.2857 1 3 0 6.2857 1 3 0 6.2857 1 3 0 6.2857 1 3 0 6.2857 1 3 0 6.2857 1 3 0 6.2857 1 3 0 6.2857 1 3 0 6.2857 1 3 0 6.2857 1 3 0 6.2857 1 3 0 6.2857 1 3 0 6.2857 1 3 0 6.2857 1 3 0 6.2857 1 3 0 6.2857 1 3 0 6.2857 1 3 0 6.2857 1 3 0 6.2857 1 3 0 6.2857 1 3 0 6.2857 1 3 0 6.2857 1 3 0 6.2857 1 3 0 6.2857 1 3 0 6.2857 1 3 0 6.2857 1 3 0 6.2857 1 3 0 6.2857 1 3 0 6.2857 1 3 0 6.2857 1 3 0 6.2857 1 3 0 6.2857 1 3 0 6.2857 1 3 0 6.2857 1 3 0 6.2857 1 3 0 6.2857 1 3 0 6.2857 1 3 0 6.2857 1 3 0 6.2857 1 3 0 6.2857 1 3 0 6.2857 1 3 0 6.2857 1 3 0 6.2857 1 3 0 6.2857 1 3 0 6.2857 1 3 0 6.2857 1 3 0 6.2857 1 3 0 6.2857 1 3 0 6.2857 1 3 0 6.2857 1 3 0 6.2857 1 3 0 6.2857 1 3 0 6.2857 1 3 0 6.2857 1 3 0 6.2857 1 3 0 6.2857 1 3 0 6.2857 1 3 0 6.2857 1 3 0 6.2857 1 3 0 6.2857 1 3 0 6.2857 1 3 0 6.2857 1 3 0 6.2857 1 3 0 6.2857 1 3 0 6.2857 1 3 0 6.2857 1 3 0 6.2857 1 3 0 6.2857 1 3 0 6.2857 1 3 0 6.2857 1 3 0 6.2857 1 3 0 6.2857 1 3 0 6.2857 1 3 0 6.2857 1 3 0 6.2857 1 3 0 6.2857 1 3 0 6.2857 1 3 0 6.2857 1 3 0 6.2857 1 3 0 6.2857 1 3 0 6.2857 1 3 0 6.2857 1 3 0 6.2857 1 3 0 6.2857 1 3 0 6.2857 1 3 0 6.2857 1 3 0 6.2857 1 3 0 6.2857 1 3 0 6.2857 1 3 0 6.2857 1 3 0 6.2857 1 3 0 6.2857 1 3 0 6.2857 1 3 0 6.2857 1 3 0 6.2857 1 3 0 6.2857 1 3 0 6.2857 1 3 0 6.2857 1 3 0 6.2857 1 3 0 6.2857 1 3 0 6.2857 1 3 0 6.2857 1 3 0 6.2857 1 3 0 6.2857 1 3 0 6.2857 1 3 0 6.2857 1 3 0 6.2857 1 3 0 6.2857 1 3 0 6.2857 1 3 0 6.2857 1 3 0 6.2857 1 3 0 6.2857 1 3 0 6.2857 1 3 0 6.2857 1 3 0 6.2857 1 3 0 6.2857 1 3 0 6.2857 1 3 0 6.2857 1 3 0 6.2857 1 3 0 6.2857 1 3 0 6.2857 1 3 0 6.2857 1 3 0 6.2857 1 3 0 6.2857 1 3 0 6.2857 1 3 0 6.2857 1 3 0 6.2857 1 3 0 6.2857 1 3 0 6.2857 1 3 0 6.2857 1 3 0 6.2857 1 3 0 6.2857 1 3 0 6.2857 1 3 0 6.2857 1 3 0 6.2857 1 3 0 6.2857 1 3 0 6.2857 1 3 0 6.2857 1 3 0 6.2857 1 3 0 6.2857 1 3 0 6.2857 1 3 0 6.2857 1 3 0 6.2857 1 3 0 6.2857 1 3 0 6.2857 1 3 0 6.2857 1 3 0 6.2857 1 3 0 6.2857 1 3 0 6.2857 1 3 0 6.2857 1 3 0 6.2857 1 3 0 6.2857 1 3 0 6.2857 1 3 0 6.2857 1 3 0 6.2857 1 3 0 6.2857 1 3 0 6.2857 1 3 0 6.2857 1 3 0 6.2857 1 3 0 6.2857 1 3 0 6.2857 1 3 0 6.2857 1 3 0 6.2857 1 3 0 6.2857 1 3 0 6.2857 1 3 0 6.2857 1 3 0 6.2857 1 3 0 6.2857 1 3 0 6.2857 1 3 0 6.2857 1 3 0 6.2857 1 3 0 6.2857 1 3 0 6.2857 1 3 0 6.2857 1 3 0 6.2857 1 3 0 6.2857 1 3 0 6.2857 1 3 0 6.2857 1 3 0 6.2857 1 3 0 6.2857 1 3 0 6.2857 1 3 0 6.2857 1 3 0 6.2857 1 3 0 6.2857 1 3 0 6.2857 1 3 0 6.2857 1 3 0 6.2857 1 3 0 6.2857 1 3 0 6.2857 1 3 0 6.2857 1 3 0 6.2857 1 3 0 6.2857 1 3 0 6.2857 1 3 0 6.2857 1 3 0 6.2857 1 3 0 6.2857 1 3 0 6.2857 1 3 0 6.2857 1 3 0 6.2857 0.9999999999377671 2.999999999776303 -2.807683999551845e-12 6.285699999727816 0.9999999999707114 2.999999999895465 -6.304914650004159e-12 6.285699999874408 0.9999999996929605 2.999999998873244 8.424823108137551e-11 6.285699998463205 0.9999999997330746 2.99999999902279 1.008893808612914e-10 6.285699998724104 0.9999999999267319 2.999999999730938 3.616254916478061e-11 6.285699999668889 1 3 0 6.2857 0.9999999998762255 2.99999999954344 2.204079656804522e-11 6.285699999360254 1 3 0 6.2857 1 3 0 6.2857 1 3 0 6.2857 1 3 0 6.2857 1 3 0 6.2857 1 3 0 6.2857 1 3 0 6.2857 1 3 0 6.2857 1 3 0 6.2857 1 3 0 6.2857 1 3 0 6.2857 1 3 0 6.2857 1 3 0 6.2857 1 3 0 6.2857 1 3 0 6.2857 1 3 0 6.2857 1 3 0 6.2857 1 3 0 6.2857 0.9999999999517408 2.999999999828667 -1.620304357126731e-11 6.285699999765146 1 3 0 6.2857 1 3 0 6.2857 0.9999999993964079 2.999999997783374 -1.142568248297302e-10 6.28569999724918 0.9999999895662888 2.999999961087449 -1.411172906890568e-09 6.285699954027054 0.9999999974790525 2.999999990547078 2.783194539903653e-10 6.285699989226258 0.9999999623932077 2.999999854790144 1.134919512300191e-08 6.285699803653413 0.9999999566069682 2.999999834326482 1.695257690589216e-08 6.285699786169952 0.9999999817427407 2.999999929984813 8.28110801452294e-09 6.28569991537208 1 3 0 6.2857 1 3 0 6.2857 0.9999999989955966 2.999999996228385 4.883184635685419e-10 6.28569999412665 0.9999999998390254 2.999999999419653 1.081174242496131e-10 6.28569999897258 1 3 0 6.2857 0.9999999999879619 2.999999999957922 9.607289292323326e-12 6.285699999918418 1 3 0 6.2857 1 3 0 6.2857 1 3 0 6.2857 1 3 0 6.2857 0.9999999810374034 2.999999927565725 -5.937963046666927e-10 6.285699914510408 1 3 0 6.2857 1 3 0 6.2857 1 3 0 6.2857 1 3 0 6.2857 0.9999999996732856 2.999999998805813 -1.389345352439171e-10 6.285699998293707 0.9999999844185763 2.999999942023444 -6.011905718625843e-09 6.28569992313073 1 3 0 6.2857 0.9999998416944151 2.999999376619528 -4.362878726520033e-08 6.285699256345817 0.999999788207006 2.999999159862494 1.04953810373074e-08 6.285699068760181 0.9999977613286473 2.999990871391824 -2.360610315725277e-07 6.285689646323432 0.9999996801147772 2.999998725875654 5.307991565129666e-08 6.285698579053618 0.9999998098010636 2.999999249846572 1.1478970615426e-07 6.285698893536583 0.9999962416492036 2.999984838793303 1.730769883247277e-06 6.285680887977939 0.9999979552794247 2.999991677421546 1.026265082481595e-06 6.285690183704766 1 3 0 6.2857 1 3 0 6.2857 1 3 0 6.2857 0.9999999598165072 2.999999849791926 3.135771716035805e-08 6.285699746819351 0.9999999958905077 2.999999985327728 3.667577787438205e-09 6.285699972545707 0.9999999999502933 2.99999999982666 4.129569212304394e-11 6.285699999654197 1 3 0 6.2857 1 3 0 6.2857 1 3 0 6.2857 1 3 0 6.2857 1 3 0 6.2857 1 3 0 6.2857 0.9999962926633246 2.999984863723142 1.523697604884475e-06 6.285680205740729 1 3 0 6.2857 1 3 0 6.2857 1 3 0 6.2857 1 3 0 6.2857 0.9999999994039717 2.999999997801677 -2.724206141461043e-10 6.285699996647104 0.9999999260074297 2.999999716008942 -3.887176135148921e-08 6.285699606472221 0.9999974413777797 2.999989861692469 -1.2304213988613e-06 6.285687114295525 0.999982444391446 2.99992429277454 -6.683057099375777e-06 6.285615000180224 0.9999850403481298 2.999936002446388 1.069700238671364e-06 6.285631980812848 0.9999761050987948 2.999896078572417 5.960819711415433e-06 6.285588998843426 0.9999944212641061 2.999977953270736 5.389637813187176e-06 6.285665067302283 0.9999848601297392 2.999936959942937 1.180095464909331e-05 6.285611484393147 0.9997880316715297 2.999059255043211 0.0001373985546254225 6.284556095684135 0.9998637333289848 2.999392908572374 8.084708223688625e-05 6.285011560142017 1 3 0 6.2857 1 3 0 6.2857 1 3 0 6.2857 1 3 0 6.2857 0.9999993139838483 2.999997469293672 7.344066151659406e-07 6.285695461306634 0.9999999876215924 2.999999956044895 1.160556475360377e-08 6.285699914471438 0.9999999999214142 2.999999999728851 6.796325362057313e-11 6.285699999443427 1 3 0 6.2857 1 3 0 6.2857 1 3 0 6.2857 1 3 0 6.2857 0.9999999993943729 2.999999997765721 -3.377309964980502e-10 6.285699996289461 0.9998137004457486 2.999154981420892 -3.13031623290425e-05 6.284796828591297 1 3 0 6.2857 1 3 0 6.2857 1 3 0 6.2857 1 3 0 6.2857 0.9999999024530732 2.999999625080313 -5.820334563704617e-08 6.285699437028834 0.9999898613593252 2.999957990945763 -7.228572732859004e-06 6.285644584293889 0.9997957105752782 2.999116449550591 -0.0001312077255082441 6.284640856939204 0.9990933198070771 2.995531901038265 -0.0005167212041188871 6.281077242337229 0.9992231640506068 2.996206472527601 0.0001008601667710119 6.281957373933205 0.9992368427505542 2.996283865015258 0.00034062604416549 6.281917891157118 0.9999411913714307 2.99977132394953 7.990628878991289e-05 6.285311519075909 0.9996134586983276 2.998324381032631 0.000509083369997996 6.283274471378022 0.9994798603406321 2.997633318543706 0.0004949621446410479 6.282666941524994 0.9966847624005595 2.983126714503864 0.002593362517530982 6.26753112433204 1 3 0 6.2857 1 3 0 6.2857 1 3 0 6.2857 1 3 0 6.2857 0.999999999677436 2.999999998825476 -2.053633971417019e-10 6.28569999789419 0.9999983403024217 2.999993939661787 1.871295467679244e-06 6.285688559976556 0.9999999836519475 2.99999994275265 1.585711095398698e-08 6.285699884477639 0.9999999999327567 2.999999999771342 5.700394294999582e-11 6.285699999528049 1 3 0 6.2857 1 3 0 6.2857 1 3 0 6.2857 0.9999999070488128 2.999999646258822 -7.095209573617576e-08 6.285699409706671 0.9958530664699918 2.978627851507438 -0.0009483183249698085 6.264017573928143 0.994625541558357 2.971823862273184 0.006140209383409651 6.254187227180573 1 3 0 6.2857 1 3 0 6.2857 1 3 0 6.2857 0.9999921843500277 2.999968596203181 -6.670312355134876e-06 6.285653446310123 0.9992510464192133 2.996385760346669 -0.0007720850937986803 6.281501891532361 0.9928763677449428 2.960929042830245 -0.008582299292718139 6.244771860336629 0.9890521708476494 2.936312513477959 -0.007760072430980808 6.224172144631888 0.988579637255093 2.93215332832314 0.001181004867597147 6.223751520483098 0.9915558853007351 2.951734816492091 0.004488433474488018 6.240060930552573 0.9998894450722695 2.999577745594212 0.0001628804302763592 6.284933656382231 0.9982888847032703 2.992743907206408 0.003181502933901549 6.274196283174595 0.9940894193805179 2.970079451390498 0.009269389133861369 6.248959404845255 0.9529917410336495 2.674834333120663 0.06642121623598105 5.98854150914639 1 3 0 6.2857 1 3 0 6.2857 1 3 0 6.2857 1 3 0 6.2857 0.9999999999265259 2.99999999973928 -5.39911976850559e-11 6.285699999496211 0.9999999768635608 2.999999915230894 -1.960246652526589e-08 6.285699843244547 0.9999982296398922 2.999993671762107 2.018126406389093e-06 6.285687457860524 0.9999999898571414 2.999999964884089 8.849716765125958e-09 6.285699929467004 1.000000000000229 2.999999999989401 -2.186459470335375e-11 6.285700000029934 1 3 0 6.2857 1 3 0 6.2857 1 3 0 6.2857 0.9996939942832791 2.998648151597015 -0.0003413092487074436 6.283923726152658 0.9999881261774028 2.999952170481482 -1.210923745925344e-05 6.285624165575911 0.9407445497824639 2.566894677601761 -0.02825288832587853 5.914516723372191 0.9938592723455382 2.969730633950431 0.01309828058653378 6.245181868784472 0.948515759722989 2.635576159548717 0.1283613462501146 5.943631854195885 0.9999965541771996 2.999986821903197 -3.508414009635357e-06 6.285676907009178 1 3 0 6.2857 0.9995729366344469 2.998131994292122 -0.0005353767813925818 6.283038114943853 0.9941148933537838 2.969649420467074 -0.009913879438227859 6.249353995951756 0.9361566477040157 2.504907207951997 -0.1030490792525272 5.874065773723856 0.9328661393283566 2.436844223687012 0.04446301809689342 5.862849994600216 0.9999100622083101 2.999669810848749 0.0001286452422119737 6.285057584347815 0.9976694943191222 2.990431896332289 0.005100239241125376 6.26916745596561 0.9714771837211487 2.851198210473754 0.09866335197339422 6.084963844168362 0.9525932440915197 2.690425585534282 0.1688184718179698 5.962435046241068 0.9088501046126474 0.5077420243253891 1.054337180427173 5.583167736910445 0.9999999999919813 2.999999999972483 -6.331852225163589e-12 6.285699999943843 1 3 0 6.2857 1 3 0 6.2857 1 3 0 6.2857 0.9999999966522675 2.999999988258213 -2.972134106234538e-09 6.285699976676094 0.9999993074602231 2.999997497882397 -7.24513190762783e-07 6.28569520144289 0.9999992496571846 2.999997321771395 6.498721353722927e-07 6.285694836734951 1.00000000635448 3.000000016510339 -1.300815403826108e-08 6.285700050373977 1 3 0 6.2857 1.000000000047378 3.000000000131245 -6.990093904635731e-11 6.285700000344738 1 3 0 6.2857 1 3 0 6.2857 0.9464878699745429 2.611100107099769 -0.1465299484661105 5.932455968130522 0.9997113815933194 2.998785914734232 -0.0004188144003305781 6.283781884464954 0.8947738938742233 0.1300630466051247 -0.569843437661536 5.4756906534981 0.8930851601730635 0 -0.01303542808014389 5.463722497703587 0.8993157035656516 0.138766711315245 0.607976688500704 5.514456175575864 0.9128935406134038 1.063042146201113 1.333012692683833 5.616717844788272 1 3 0 6.2857 0.9999290241943253 2.999731258449994 -9.456994632272471e-05 6.285209714894787 1 3 0 6.2857 1 3 0 6.2857 1 3 0 6.2857 0.9952451833096581 2.977375290096615 -0.009687591108534047 6.254033467842801 0.9567378910931172 2.725048024091243 -0.145910007992694 5.990095535495051 0.8959378830751493 0.507437796963003 -1.053705436745943 5.486957521434219 0.9987574096905079 2.995256251344748 0.002437510786265746 6.276742874702124 0.9999784953509628 2.999913140272686 7.525535084102956e-06 6.285559655252044 0.9789622660613668 2.899331577415712 0.09279443738503965 6.132588629038823 0.9335044121807592 1.718711710895544 1.370626857471857 5.779438100867107 0.9999999999280442 2.999999999755306 -6.455924026562787e-11 6.285699999492003 1 3 0 6.2857 1 3 0 6.2857 0.9999999778753723 2.999999923230192 -2.319406643322851e-08 6.285699843954133 0.9999964717060383 2.999987422670848 -4.677385939539995e-06 6.285674940753957 1.000000598150835 3.000001406461282 -1.606143714562013e-06 6.285704964622033 1.000000009581637 3.000000025631341 -1.411013762231292e-08 6.285700066713749 1.000000000035969 3.00000000009689 -4.677928587243555e-11 6.285700000242803 1 3 0 6.2857 0.9112219079169063 1.067539616070809 -1.338652328144005 5.60863193062562 0.9975119218394526 2.989545380049345 -0.005132266730103463 6.268267271058519 0.9530916168413541 2.310022970045206 1.112448433843425 5.926458824939789 1 3 0 6.2857 1 3 0 6.2857 1 3 0 6.2857 0.9997728659517799 2.99912759089888 -0.0004475205565287949 6.284101305492873 1.000001015334517 3.000002666219157 -1.729544999857313e-06 6.285707237980471 1 3 0 6.2857 1.000000000012796 3.000000000033049 -1.525813160864337e-11 6.285700000080844 1 3 0 6.2857 1 3 0 6.2857 0.9662771910664454 2.817397103119641 -0.12850964269808 6.046406053863365 0.9304617810520164 1.703714239414302 -1.358666760420727 5.753064143737181 0.9930033188342937 2.971397311566741 0.0226672029310356 6.235240444699969 1.000144049864402 3.00003592594552 -0.001015736264877225 6.287025017870743 1.000043802627384 3.000109166897471 -0.0001083815501983637 6.286037013553059 0.9743581414257366 2.768658701939215 0.6319282816200451 6.091742326958446 0.9999999993577731 2.999999997579121 1.414272065325809e-10 6.285699995883849 0.9999999999983622 2.999999999993982 9.929155050179191e-14 6.285699999989207 1 3 0 6.2857 0.999999799969455 2.9999992405009 4.795759152427874e-08 6.285698716841233 0.9999339177707396 2.999774019924645 -7.157013427025437e-05 6.285224016087533 1.000000005089749 3.000000012954751 -6.762259126007604e-09 6.285700032905225 1.000000917011997 3.000002292823881 -1.401069644770043e-06 6.285706107550672 1 3 0 6.2857 0.9976258280831416 2.990341097430997 -0.006547371221378495 6.268799212362596 0.9803714044944569 2.90998853759316 -0.08130943950290136 6.143794536728446 1 3 0 6.2857 1 3 0 6.2857 1 3 0 6.2857 1.00005579723578 3.000135927742284 -0.0001028057723149285 6.286082582229275 1 3 0 6.2857 1 3 0 6.2857 1.000000001073626 3.000000002619009 -1.276184763932269e-09 6.285700006466424 1.000000000001825 3.000000000004561 -1.994847243351884e-12 6.285700000010888 1 3 0 6.2857 0.9501644173059538 2.309870206425928 -1.11237485916278 5.906490640377752 0.998953707464284 2.978143714702951 0 6.281901717723418 1.006736839195642 3.01043931267994 -0.04034380381494518 6.337079800910979 1.001081612798104 3.002373218340123 -0.003259735209728528 6.293812502818627 1.000000006734093 3.000000017821852 1.217164417025561e-08 6.285700049703488 1.00000000001894 3.00000000005231 3.042932610932094e-11 6.285700000140942 1 3 0 6.2857 1 3 0 6.2857 1.00000885671589 3.000011452650779 4.873766321312377e-05 6.285776443572688 0.9991175487863011 2.996842989792527 -0.001319933840420458 6.279365691584298 1.000000322535316 3.000000763997566 -4.322578150121136e-07 6.285701981477583 1.000048345804178 3.000110038734219 -7.909539634608441e-05 6.286011491902325 1 3 0 6.2857 0.9746398363157489 2.77007020117459 -0.6322504444435909 6.094460576974354 1.000001204930392 3.000003027985071 2.452537145609736e-06 6.285708741507397 1 3 0 6.2857 1 3 0 6.2857 1.000998054507459 3.002122777748775 -0.002194168030325977 6.292437702409238 1 3 0 6.2857 1 3 0 6.2857 1 3 0 6.2857 1.000000007790199 3.000000017183174 -8.879710326118188e-09 6.285700043193538 1.000000000015747 3.00000000003636 -1.649626215957684e-11 6.285700000087113 1 3 0 6.2857 0.9931770052125104 2.971704350860299 -0.02387807079993473 6.236578364723666 1.022621052537575 2.889351746535812 -0.6594756793858071 6.464492929806155 1.01732588761946 3.019967316799152 -0.08143543972316207 6.412500221910335 1.000000000087774 3.000000000234329 1.25737540180416e-10 6.285700000609394 1.000000025352837 3.000000064186568 4.027509652358318e-08 6.285700173925145 1 3 0 6.2857 1 3 0 6.2857 1.000098279371774 3.000226888375416 0.0002382254826279467 6.286406207764381 1.000411611543926 3.000698313489605 0.001852332755859604 6.288906345751597 1.000002311140503 3.00000467163402 -3.098162699005607e-06 6.285713029387212 1.002592352629217 3.003871343804147 -0.007038421875177048 6.303248810401987 1 3 0 6.2857 1.001595512307724 2.989088691146157 -1.327063459122257e-15 6.299822155358239 1.000003746997767 3.000008760197338 6.840197657350227e-06 6.285725429072478 1.000000000002268 3.000000000006287 2.827547387416227e-12 6.285700000015712 1 3 0 6.2857 1 3 0 6.2857 1.000201067189419 3.000357330605487 -0.0003698971012665883 6.286940789543767 1 3 0 6.2857 1 3 0 6.2857 1 3 0 6.2857 1.000000000243286 3.000000000549775 -2.154575549157765e-10 6.285700001254325 1.000000123054127 3.00000026644401 -1.148083164749477e-07 6.285700629555491 1.000000000000148 3.000000000000357 -1.31251577539996e-13 6.285700000000796 1.00842270524839 3.012972186116603 0.05146337165617344 6.348889668536454 1.046972572599296 2.527022075725781 -1.216949689400223 6.650647811475036 1.000000000910086 3.000000002387797 1.178537743000398e-09 6.285700006062822 1.000000210793707 3.000000519990607 2.845321986643098e-07 6.285701354610472 1 3 0 6.2857 1 3 0 6.2857 1 3 0 6.2857 1.00198905208813 3.003868033297183 0.006230458788619011 6.300045270349392 1.00021347699766 3.000441347137221 0.0004743603872858732 6.287157952102822 1.033586243771469 2.997622993853011 -0.1574583494583938 6.525131324059485 1.000120630109334 3.000237088919212 -0.0001460636491295876 6.286346562652277 1.003291920704525 3.004242047521011 -0.007244250652044989 6.306547032321626 1 3 0 6.2857 1 3 0 6.2857 1.000016531079072 3.000033727135633 -1.576307294268661e-05 6.285782781655632 1.028912647956062 2.913431204507822 0.6649716600314816 6.508795331978199 1.000028461756582 3.000064169792115 4.043313857813126e-05 6.285875101349548 1.000000000003027 3.000000000007609 3.374897143333267e-12 6.285700000018185 1 3 0 6.2857 1 3 0 6.2857 1 3 0 6.2857 1 3 0 6.2857 1.000000000001114 3.000000000002476 -8.800501656738148e-13 6.285700000005486 1.000000004548088 3.000000009001262 -4.43613059504683e-09 6.285700022566303 1.000000658929781 3.000001182800581 -6.568845293201002e-07 6.285703171386663 1.02225284575502 3.019210601637218 0.1135931455400958 6.448101789275034 1.065439535558147 1.923579816839805 -1.53400371062148 6.797948720263712 1.00000000093461 3.000000002227832 1.046593711404061e-09 6.285700005399564 1.000000128155153 3.0000002857808 1.440130127334117e-07 6.285700709440414 1 3 0 6.2857 1 3 0 6.2857 1 3 0 6.2857 1.002317136415277 3.00382440159522 0.005603427062863335 6.301043651346962 1.035380766552152 2.996140134337271 -0.1080516573236879 6.524005437702952 1.001014828860441 3.001851964313903 -0.001120169511708907 6.290809496481921 1 3 0 6.2857 1 3 0 6.2857 1.000000000018645 3.00000000003778 -1.620259207469404e-11 6.285700000089431 1.000092544466245 3.000129253147034 -9.78867560864932e-05 6.286128272009712 1.055354773302817 2.547367111340947 1.226747346376046 6.7122784591482 1.000003584535988 3.000006485871574 5.167073642464888e-06 6.285719835627019 1.000000000001529 3.00000000000359 1.452174208131293e-12 6.285700000008228 1 3 0 6.2857 1.000241635298229 3.000380158509101 0.0004372125291354049 6.287111611941922 1 3 0 6.2857 1 3 0 6.2857 1.000000003076186 3.000000005726394 -2.133273478178523e-09 6.285700013369159 1.000000547126568 3.000000932286075 -3.303121984467832e-07 6.285702256252339 1.035012516103572 2.999600561204446 0.1539903831389028 6.532892138915908 1.083703431623241 1.253188999530383 -1.571449295420335 6.93163360458496 1.000000000290555 3.000000000649747 2.754341704455225e-10 6.28570000151757 1.000000014731155 3.00000002974275 1.607037082825093e-08 6.285700076568965 1 3 0 6.2857 1 3 0 6.2857 1 3 0 6.2857 1.004093368656219 3.004268670246132 0.00911820742971153 6.310299090337415 1.003949042278212 3.002440904854368 -0.006925359090262956 6.306773959298301 1 3 0 6.2857 1.000000000005962 3.000000000011687 -3.724780597443821e-12 6.285700000026049 1.000053358939789 3.000077100378348 -3.378924686982205e-05 6.285917083807934 1.078846211598844 1.957694397147078 1.561209186880461 6.894559023341923 1.051956080946926 2.930107864949385 -0.1429953946263249 6.622076495294683 1.000000980893341 3.000001778926495 1.000349647044239e-06 6.285704793790238 1.000161816516459 3.000234438181776 0.0002176987234010968 6.2865276254899 1.000000000000234 3.000000000000524 1.846616787253331e-13 6.285700000001157 1 3 0 6.2857 1 3 0 6.2857 1.002746075566906 3.002399622418488 -0.002918654174389412 6.298100669397709 1 3 0 6.2857 1.000000000931872 3.000000001775239 -4.022869593231288e-10 6.285700003868788 1.000000294183822 3.000000506177846 -1.422249285935474e-07 6.285701202431518 1.048870013120651 2.960706796940269 0.1756718426351762 6.617413206523395 1.100388425054639 0.6101391079831479 -1.266966909643148 7.065788071302075 1.000000000027478 3.000000000058415 2.47133601840413e-11 6.285700000137304 1.000000002944699 3.000000005846848 2.496245794122302e-09 6.285700014043027 1 3 0 6.2857 1 3 0 6.2857 1 3 0 6.2857 1.005299429413145 3.00314730699714 0.00952008757372521 6.314461102699729 1 3 0 6.2857 1.000000000001072 3.000000000002122 -4.656654167219488e-13 6.28570000000451 1.002791014581479 3.00201447866106 -0.001951793879109243 6.296962584774898 1.000000510688478 3.000000788948542 -1.065338096832178e-07 6.285701909267889 1.097761570672841 1.264779583656254 1.585983433714196 7.042272356349885 1.053949288188448 2.911584307633658 -0.09078192270988035 6.623283068736465 1.000000025558761 3.000000044369495 2.086150354568488e-08 6.285700114824161 1.000005626987253 3.000007836290649 5.580018459215507e-06 6.28572554381649 1 3 0 6.2857 1 3 0 6.2857 1 3 0 6.2857 1.000405138074905 3.000423017728508 0.0004909487572490803 6.287620227698884 1.000000000002625 3.000000000004942 -7.551664152339288e-13 6.285700000010472 1.000000001523667 3.000000002741104 -4.926607736666582e-10 6.285700006032373 1.000074688600797 3.000093526187625 -1.970261502762644e-05 6.285981907712388 1.058733509462569 2.921086750102716 0.1522313533011045 6.666619453680049 1.10316076531462 0.1602225191152666 -0.7019807226507805 7.083316945877959 1.000000000004086 3.000000000008354 2.925926382674453e-12 6.285700000018867 1.000000000090489 3.000000000171796 6.772834999159862e-11 6.285700000409726 1 3 0 6.2857 1 3 0 6.2857 1 3 0 6.2857 1.005597206015733 3.002308505358795 0.006952961782896002 6.312437174765485 1 3 0 6.2857 1.002654078236369 3.00153930495398 -0.0005929289417526066 6.296433769551856 1.05132425030278 2.920522545325175 -0.02895634328374786 6.595637844813735 1.00000074306047 3.000001153930544 -3.366959395836537e-08 6.285702792148854 1.000000002646825 3.000000004576706 -2.462330777020307e-10 6.285700010124675 1.114725389692149 0.6227373702943213 1.293127475160945 7.172158264010847 1.000000556443766 3.0000009698236 3.723216294708685e-07 6.285702383382167 1.000000001433442 3.000000002808498 9.866797122261268e-10 6.285700006422381 1.000127247757632 3.00015972006014 8.7993927834017e-05 6.286220172658025 1 3 0 6.2857 1 3 0 6.2857 1 3 0 6.2857 1.000000000003734 3.000000000006885 -4.982748267036296e-13 6.285700000014483 1.000116775373555 3.000133253855907 8.479776834100255e-07 6.286139130150252 1.06571131862345 2.860224965595688 0.1128495359060239 6.699454398578844 1.112353838506301 0 -0.01557581142495719 7.151873785640435 1.000000000000759 3.000000000001661 5.652573606824723e-13 6.285700000003636 1 3 0 6.2857 1 3 0 6.2857 1.004798022859618 3.001421517777686 0.003194527675724245 6.306128606370946 1.004343988850123 3.001084386109699 0.0007664773042705686 6.303378918173349 1.000001496149804 3.000002076094584 2.600173807880527e-07 6.285705645073191 1.000000004145313 3.000000007032748 -2.760814731875519e-11 6.285700015745546 1.000000000012013 3.000000000021558 -7.035323702603215e-13 6.285700000046413 1.122931482482816 0.1640012763652311 0.7185365408628993 7.240054459597062 1.063702950017707 2.85087031409373 0.03365627758679996 6.676676234812556 1.000000003051265 3.000000005547959 1.469826620020433e-09 6.285700012442694 1.000001166768138 3.000001818920632 4.942599620491054e-07 6.28570454960448 1.000000000011651 3.000000000022447 6.617587082199457e-12 6.285700000049625 1 3 0 6.2857 1.000176495293064 3.000174698830215 6.701360683735117e-05 6.286385405131346 1 3 0 6.2857 1 3 0 6.2857 1 3 0 6.2857 1.000000004170803 3.000000007163715 1.202755430704392e-09 6.28570001612794 1.000000000007162 3.000000000012964 9.247868991726699e-13 6.285700000027466 1.00000000000411 3.000000000007895 1.597839159064892e-12 6.285700000016716 1 3 0 6.2857 1 3 0 6.2857 1 3 0 6.2857 </DataArray>
      </PointData>
    </Piece>
  </UnstructuredGrid>
</VTKFile>
